<?xml version="1.0" encoding="UTF-8" standalone="no"?>
<svg width="34px" height="37px" viewBox="0 0 34 37" version="1.1" xmlns="http://www.w3.org/2000/svg" xmlns:xlink="http://www.w3.org/1999/xlink" xmlns:sketch="http://www.bohemiancoding.com/sketch/ns">
    <!-- Generator: Sketch 3.3.2 (12043) - http://www.bohemiancoding.com/sketch -->
    <title>Imported Layers</title>
    <desc>Created with Sketch.</desc>
    <defs></defs>
    <g id="Page-1" stroke="none" stroke-width="1" fill="none" fill-rule="evenodd" sketch:type="MSPage">
        <g id="Help-Copy-2" sketch:type="MSArtboardGroup" transform="translate(-55.000000, -1200.000000)" fill="#0F474C">
            <path d="M67.2779986,1236.40834 C63.9689986,1236.40834 60.7319986,1235.22534 58.7389986,1233.23134 C56.9149986,1231.40734 55.5289986,1228.20334 55.1229986,1224.87034 C54.6429986,1220.93234 55.5719986,1217.56934 57.7389986,1215.40334 L70.7389986,1202.40334 C73.9269986,1199.21134 79.5329986,1200.36934 82.5669986,1203.40334 C85.6839986,1206.52134 85.6839986,1213.11434 82.5669986,1216.23134 L71.6279986,1228.16834 C69.6289986,1230.17034 65.6789986,1230.17134 63.7389986,1228.23134 C62.8079986,1227.30134 62.2739986,1225.87434 62.2739986,1224.31734 C62.2739986,1222.76034 62.8079986,1221.33434 63.7389986,1220.40334 L74.6779986,1208.46534 C75.4249986,1207.65234 76.6909986,1207.59634 77.5049986,1208.34334 C78.3189986,1209.08934 78.3739986,1210.35434 77.6279986,1211.16934 L66.6279986,1223.16934 C66.4539986,1223.34434 66.2739986,1223.73934 66.2739986,1224.31734 C66.2739986,1224.89534 66.4539986,1225.28934 66.5669986,1225.40234 C66.6799986,1225.51634 67.0759986,1225.69634 67.6529986,1225.69634 C68.2299986,1225.69634 68.6259986,1225.51634 68.7389986,1225.40334 L79.6779986,1213.46534 C81.3139986,1211.82834 81.3129986,1207.80634 79.7389986,1206.23134 C78.1139986,1204.60734 74.9999986,1203.79934 73.5669986,1205.23134 L60.5669986,1218.23134 C59.3069986,1219.49134 58.7699986,1221.73434 59.0929986,1224.38634 C59.3869986,1226.79934 60.3809986,1229.21734 61.5669986,1230.40234 C63.7719986,1232.60934 69.6569986,1233.48534 72.7389986,1230.40334 L84.6829986,1217.46134 C85.4319986,1216.64934 86.6979986,1216.59834 87.5089986,1217.34734 C88.3209986,1218.09734 88.3719986,1219.36234 87.6229986,1220.17334 L75.6229986,1233.17334 C73.3739986,1235.42434 70.2959986,1236.40834 67.2779986,1236.40834" id="Imported-Layers" sketch:type="MSShapeGroup"></path>
        </g>
    </g>
</svg>