<svg width="30px" height="40px" viewBox="0 0 30 40" version="1.1" xmlns="http://www.w3.org/2000/svg" xmlns:xlink="http://www.w3.org/1999/xlink" xmlns:sketch="http://www.bohemiancoding.com/sketch/ns">
    <!-- Generator: Sketch 3.3.2 (12043) - http://www.bohemiancoding.com/sketch -->
    <title>Imported Layers</title>
    <desc>Created with Sketch.</desc>
    <defs></defs>
    <g id="Page-1" stroke="none" stroke-width="1" fill="none" fill-rule="evenodd" sketch:type="MSPage">
        <g id="Product_list_full" sketch:type="MSArtboardGroup" transform="translate(-135.000000, -665.000000)" fill="#FFFFFF">
            <g id="quick_actions-3" sketch:type="MSLayerGroup" transform="translate(80.000000, 615.000000)">
                <g id="Imported-Layers" transform="translate(54.000000, 50.000000)" sketch:type="MSShapeGroup">
                    <path d="M27,14 L27,11 C27,4.935 22.065,0 16,0 C9.935,0 5,4.935 5,11 L5,14 C2.8,14 1,15.8 1,18 L1,25 C1,33.25 7.75,40 16,40 C24.25,40 31,33.25 31,25 L31,18 C31,15.8 29.2,14 27,14 L27,14 Z M9,11 C9,7.141 12.141,4 16,4 C19.859,4 23,7.141 23,11 L23,14 L9,14 L9,11 L9,11 Z M27,25 C27,31.065 22.065,36 16,36 C9.935,36 5,31.065 5,25 L5,18 L27,18 L27,25 L27,25 Z" id="Fill-1"></path>
                    <path d="M14,27.221 L14,29 C14,30.1 14.9,31 16,31 C17.1,31 18,30.1 18,29 L18,27.221 C18.61,26.672 19,25.885 19,25 C19,23.343 17.657,22 16,22 C14.343,22 13,23.343 13,25 C13,25.885 13.39,26.672 14,27.221" id="Fill-2"></path>
                </g>
            </g>
        </g>
    </g>
</svg>