<svg width="32px" height="32px" viewBox="0 0 32 32" version="1.1" xmlns="http://www.w3.org/2000/svg" xmlns:xlink="http://www.w3.org/1999/xlink" xmlns:sketch="http://www.bohemiancoding.com/sketch/ns">
    <!-- Generator: Sketch 3.3.2 (12043) - http://www.bohemiancoding.com/sketch -->
    <title>Imported Layers</title>
    <desc>Created with Sketch.</desc>
    <defs></defs>
    <g id="Page-1" stroke="none" stroke-width="1" fill="none" fill-rule="evenodd" sketch:type="MSPage">
        <g id="Menu" sketch:type="MSArtboardGroup" transform="translate(-171.000000, -180.000000)" fill="#FFFFFF">
            <path d="M186.999622,186.072 L188.521622,190.049 C189.364622,191.856 191.044622,193.115 193.015622,193.418 L196.999622,194.073 L193.856622,197.057 C192.551622,198.402 191.951622,200.31 192.251622,202.16 L192.999622,206.073 L189.894622,204.529 C189.011622,204.038 188.009622,204.072 186.999622,204.072 C185.989622,204.072 184.988622,204.038 184.105622,204.529 L180.999622,206.073 L181.747622,202.16 C182.047622,200.31 181.447622,198.402 180.142622,197.057 L176.999622,194.073 L180.983622,193.418 C182.954622,193.115 184.634622,191.856 185.477622,190.049 L186.999622,186.072 M186.999622,180 C186.288622,180 185.577622,180.376 185.225622,181.13 L181.852622,188.357 C181.576622,188.95 181.022622,189.365 180.376622,189.464 L172.661622,190.65 C171.090622,190.891 170.447622,192.807 171.554622,193.949 L177.271622,199.842 C177.702622,200.286 177.897622,200.908 177.798622,201.519 L176.468622,209.724 C176.263622,210.987 177.268622,212 178.401622,212 C178.715622,212 179.040622,211.922 179.351622,211.749 L186.048622,208.025 C186.344622,207.861 186.671622,207.779 186.999622,207.779 C187.327622,207.779 187.654622,207.861 187.950622,208.025 L194.647622,211.749 C194.958622,211.922 195.283622,212 195.597622,212 C196.729622,212 197.735622,210.987 197.531622,209.724 L196.200622,201.519 C196.101622,200.908 196.296622,200.286 196.727622,199.842 L202.444622,193.949 C203.551622,192.807 202.908622,190.891 201.337622,190.65 L193.622622,189.464 C192.976622,189.365 192.422622,188.95 192.146622,188.357 L188.773622,181.13 C188.421622,180.376 187.710622,180 186.999622,180" id="Imported-Layers" sketch:type="MSShapeGroup"></path>
        </g>
    </g>
</svg>