<svg width="28px" height="29px" viewBox="0 0 28 29" version="1.1" xmlns="http://www.w3.org/2000/svg" xmlns:xlink="http://www.w3.org/1999/xlink" xmlns:sketch="http://www.bohemiancoding.com/sketch/ns">
    <!-- Generator: Sketch 3.3.2 (12043) - http://www.bohemiancoding.com/sketch -->
    <title>Shape</title>
    <desc>Created with Sketch.</desc>
    <defs></defs>
    <g id="Page-1" stroke="none" stroke-width="1" fill="none" fill-rule="evenodd" sketch:type="MSPage">
        <g id="Vipiska-Copy-2" sketch:type="MSArtboardGroup" transform="translate(-582.000000, -779.000000)" fill="#A1AEB3">
            <g id="Period" sketch:type="MSLayerGroup" transform="translate(0.000000, 147.000000)">
                <path d="M595.986,632.9 C588.262,632.9 582,639.162 582,646.886 C582,654.611 588.262,660.873 595.986,660.873 C603.711,660.873 609.973,654.611 609.973,646.886 C609.973,639.162 603.711,632.9 595.986,632.9 L595.986,632.9 Z M601.667,650.802 C602.155,651.29 602.155,652.079 601.667,652.567 C601.423,652.812 601.103,652.933 600.784,652.933 C600.464,652.933 600.145,652.812 599.901,652.567 L595.986,648.652 L592.072,652.567 C591.828,652.812 591.509,652.933 591.189,652.933 C590.869,652.933 590.55,652.812 590.306,652.567 C589.818,652.079 589.818,651.289 590.306,650.802 L594.22,646.886 L590.306,642.973 C589.818,642.485 589.818,641.695 590.306,641.206 C590.793,640.718 591.584,640.718 592.072,641.206 L595.986,645.121 L599.901,641.206 C600.389,640.718 601.18,640.718 601.667,641.206 C602.155,641.695 602.155,642.484 601.667,642.973 L597.752,646.886 L601.667,650.802 L601.667,650.802 Z" id="Shape" sketch:type="MSShapeGroup"></path>
            </g>
        </g>
    </g>
</svg>