<svg width="120px" height="120px" viewBox="0 0 120 120" version="1.1" xmlns="http://www.w3.org/2000/svg" xmlns:xlink="http://www.w3.org/1999/xlink" xmlns:sketch="http://www.bohemiancoding.com/sketch/ns">
    <!-- Generator: Sketch 3.3.2 (12043) - http://www.bohemiancoding.com/sketch -->
    <title>Imported Layers</title>
    <desc>Created with Sketch.</desc>
    <defs></defs>
    <g id="Page-1" stroke="none" stroke-width="1" fill="none" fill-rule="evenodd" sketch:type="MSPage">
        <g id="Cards" sketch:type="MSArtboardGroup" transform="translate(-1900.000000, -250.000000)" fill="#FFFFFF">
            <g id="card" sketch:type="MSLayerGroup" transform="translate(1715.000000, 160.000000)">
                <path d="M245,90 C211.863636,90 185,116.863636 185,150 C185,183.136364 211.863636,210 245,210 C278.136364,210 305,183.136364 305,150 C305,116.863636 278.136364,90 245,90 L245,90 Z M245.409091,199.434783 C218.074091,199.434783 195.909091,177.269783 195.909091,149.934783 C195.909091,122.599783 218.074091,100.434783 245.409091,100.434783 C272.744091,100.434783 294.909091,122.599783 294.909091,149.934783 C294.909091,177.269783 272.744091,199.434783 245.409091,199.434783 L245.409091,199.434783 Z M264.512858,131.026459 C262.368154,128.881615 258.890552,128.881615 256.751333,131.026459 L245.117273,142.661279 L233.483212,131.026459 C231.338508,128.881615 227.866391,128.881615 225.721687,131.026459 C223.582468,133.165818 223.582468,136.643647 225.721687,138.783006 L237.361233,150.417826 L225.721687,162.052646 C223.582468,164.192005 223.582468,167.669834 225.721687,169.809193 C227.866391,171.954037 231.338508,171.954037 233.483212,169.809193 L245.117273,158.174373 L256.751333,169.809193 C258.890552,171.954037 262.368154,171.954037 264.512858,169.809193 C266.652077,167.664349 266.652077,164.192005 264.512858,162.052646 L252.873313,150.417826 L264.512858,138.783006 C266.652077,136.638162 266.652077,133.165818 264.512858,131.026459 L264.512858,131.026459 Z" id="Imported-Layers" sketch:type="MSShapeGroup"></path>
            </g>
        </g>
    </g>
</svg>