<?xml version="1.0" encoding="UTF-8" standalone="no"?>
<svg width="18px" height="30px" viewBox="0 0 18 30" version="1.1" xmlns="http://www.w3.org/2000/svg" xmlns:xlink="http://www.w3.org/1999/xlink" xmlns:sketch="http://www.bohemiancoding.com/sketch/ns">
    <!-- Generator: Sketch 3.3.2 (12043) - http://www.bohemiancoding.com/sketch -->
    <title>connect_ico</title>
    <desc>Created with Sketch.</desc>
    <defs></defs>
    <g id="Page-1" stroke="none" stroke-width="1" fill="none" fill-rule="evenodd" sketch:type="MSPage">
        <g id="Cards" sketch:type="MSArtboardGroup" transform="translate(-581.000000, -295.000000)" fill="#125359">
            <g id="connect_ico" sketch:type="MSLayerGroup" transform="translate(581.000000, 295.000000)">
                <path d="M11,20 L9,20 C7.895,20 7,19.104 7,18 C7,16.896 7.895,16 9,16 L11,16 C12.654,16 14,14.654 14,13 L14,7 C14,5.346 12.654,4 11,4 L9,4 C7.346,4 6,5.346 6,7 C6,8.105 5.104,9 4,9 C2.895,9 2,8.105 2,7 C2,3.141 5.14,0 9,0 L11,0 C14.86,0 18,3.141 18,7 L18,13 C18,16.859 14.86,20 11,20" id="Fill-1" sketch:type="MSShapeGroup"></path>
                <path d="M9,30 L7,30 C3.14,30 0,26.859 0,23 L0,17 C0,13.141 3.14,10 7,10 L9,10 C10.105,10 11,10.896 11,12 C11,13.104 10.105,14 9,14 L7,14 C5.346,14 4,15.346 4,17 L4,23 C4,24.654 5.346,26 7,26 L9,26 C10.654,26 12,24.654 12,23 C12,21.896 12.895,21 14,21 C15.105,21 16,21.896 16,23 C16,26.859 12.86,30 9,30" id="Fill-2" sketch:type="MSShapeGroup"></path>
            </g>
        </g>
    </g>
</svg>