<svg width="32px" height="30px" viewBox="0 0 32 30" version="1.1" xmlns="http://www.w3.org/2000/svg" xmlns:xlink="http://www.w3.org/1999/xlink" xmlns:sketch="http://www.bohemiancoding.com/sketch/ns">
    <!-- Generator: Sketch 3.3.2 (12043) - http://www.bohemiancoding.com/sketch -->
    <title>Imported Layers Copy 5</title>
    <desc>Created with Sketch.</desc>
    <defs></defs>
    <g id="Page-1" stroke="none" stroke-width="1" fill="none" fill-rule="evenodd" sketch:type="MSPage">
        <g id="Ideas_4-Copy" sketch:type="MSArtboardGroup" transform="translate(-193.000000, -1491.000000)" fill="#FF4C5B">
            <g id="Imported-Layers-Copy-5" sketch:type="MSLayerGroup" transform="translate(209.000000, 1506.000000) scale(1, -1) translate(-209.000000, -1506.000000) translate(193.000000, 1491.000000)">
                <path d="M0.155487179,11.6725352 L5.89907692,11.6725352 L5.89907692,29.8415493 L0.155487179,29.8415493 L0.155487179,11.6725352 Z" id="Fill-1" sketch:type="MSShapeGroup"></path>
                <path d="M32,12.0929577 L27.0769231,28.1492958 C27.0769231,29.0830986 26.3425641,29.8394366 25.4358974,29.8394366 L10.2564103,29.8394366 C9.34974359,29.8394366 8.61538462,29.0830986 8.61538462,28.1492958 L8.61538462,11.4084507 C8.61538462,10.4788732 19.2820513,0 19.2820513,0 C20.1846154,0 20.9230769,0.76056338 20.9230769,1.69014085 L20.9230769,10.4028169 L30.3589744,10.4028169 C31.265641,10.4028169 32,11.1633803 32,12.0929577" id="Fill-2" sketch:type="MSShapeGroup"></path>
            </g>
        </g>
    </g>
</svg>