<?xml version="1.0" encoding="UTF-8" standalone="no"?>
<svg width="80px" height="80px" viewBox="0 0 80 80" version="1.1" xmlns="http://www.w3.org/2000/svg" xmlns:xlink="http://www.w3.org/1999/xlink" xmlns:sketch="http://www.bohemiancoding.com/sketch/ns">
    <!-- Generator: Sketch 3.3.2 (12043) - http://www.bohemiancoding.com/sketch -->
    <title>Imported Layers</title>
    <desc>Created with Sketch.</desc>
    <defs></defs>
    <g id="Page-1" stroke="none" stroke-width="1" fill="none" fill-rule="evenodd" sketch:type="MSPage">
        <g id="touch_id" sketch:type="MSArtboardGroup" transform="translate(-280.000000, -356.000000)" fill="#FFFFFF">
            <g id="Imported-Layers" sketch:type="MSLayerGroup" transform="translate(280.000000, 356.000000)">
                <path d="M21.0720278,62.7466865 C20.287317,62.5417722 19.4867213,63.0135517 19.2818069,63.7966741 C18.6495905,66.2238769 17.8045172,68.5811864 16.7577066,70.8479523 C16.4177712,71.5850087 16.7386448,72.4570861 17.4757012,72.7970216 C18.211169,73.1369571 19.0832465,72.8144949 19.4231819,72.0790271 C20.5430628,69.6550012 21.4469099,67.1324895 22.1236039,64.5369074 C22.3269298,63.7537851 21.8567386,62.9516009 21.0720278,62.7466865" id="Fill-1" sketch:type="MSShapeGroup"></path>
                <path d="M35.6273021,42.7254406 C35.6257136,42.6396624 35.6177712,42.5522959 35.6002978,42.4649293 C35.4843385,41.8835443 35.4096798,41.3085133 35.3683793,40.7684289 C35.3540829,40.5809878 35.344552,40.4126086 35.3397865,40.2664681 C35.3366096,40.183867 35.3350211,40.1298585 35.3350211,40.1107967 C35.3350211,37.5152147 37.4381732,35.4120625 40.0321668,35.4120625 C42.1972698,35.4120625 44.0557955,36.8909407 44.579995,38.9432614 C44.5847605,39.021097 44.5942914,39.0973443 44.6117647,39.1751799 C45.6633408,43.8294366 46.1986597,48.6139489 46.1986597,53.4683544 C46.1986597,54.2800695 46.8562919,54.9361132 47.6664185,54.9361132 C48.4781335,54.9361132 49.1341772,54.2800695 49.1341772,53.4683544 C49.1341772,48.4979896 48.5956813,43.5959295 47.5393398,38.8225366 C47.5377513,38.741524 47.5298089,38.6605113 47.5123356,38.5794986 C46.794341,35.0498883 43.6777364,32.476545 40.0321668,32.476545 C35.8163316,32.476545 32.3995036,35.893373 32.3995036,40.1107967 C32.3995036,40.2918838 32.410623,40.5952842 32.4408042,40.9939935 C32.4852817,41.5690246 32.5631174,42.1774138 32.6774882,42.7969223 C32.6790767,42.8493423 32.6854306,42.9017622 32.693373,42.9557707 C33.1810375,45.9754778 33.4272524,49.0460164 33.4272524,52.1483246 C33.4272524,60.5752296 31.6052619,68.7416232 28.1376024,76.2170266 C27.7960784,76.9524944 28.1153636,77.8245719 28.8508315,78.1660958 C29.5862993,78.5076198 30.4599653,78.1883346 30.8014892,77.4528667 C34.4486473,69.5914619 36.3627699,61.0041201 36.3627699,52.1483246 C36.3627699,48.9697692 36.1149665,45.8229834 35.6273021,42.7254406" id="Fill-2" sketch:type="MSShapeGroup"></path>
                <path d="M38.2038223,72.3967238 C37.4349963,72.1362125 36.6026309,72.5492182 36.3421196,73.3164557 C36.1943907,73.7517002 35.9767684,74.34897 35.7051378,75.0637875 C35.679722,75.1305038 35.6543063,75.1972202 35.6288905,75.2639365 C35.4207992,75.8119633 35.1952345,76.3885828 34.9712584,76.9572599 C34.8934227,77.1558203 34.8203524,77.3400844 34.7552246,77.5036982 C34.7329859,77.5608836 34.7123356,77.6117151 34.6948622,77.6561926 C34.6773889,77.6990817 34.6773889,77.6990817 34.674212,77.7086126 C34.3724001,78.4599653 34.7377513,79.3161579 35.4906925,79.6163812 C36.2420452,79.9181931 37.0966493,79.5528419 37.3984612,78.8014892 C37.4032266,78.7903698 37.4032266,78.7903698 37.4206999,78.7443038 C37.4381732,78.6998263 37.4588235,78.6474063 37.4826508,78.5902209 C37.5493671,78.4218416 37.6240258,78.2359891 37.70345,78.0342517 C37.9306031,77.4560437 38.1593448,76.8698933 38.3722015,76.3107471 C38.3992058,76.2408538 38.4246215,76.172549 38.4500372,76.1042442 C38.7327873,75.360834 38.9615289,74.733383 39.1235542,74.2584264 C39.382477,73.4911889 38.9710598,72.657235 38.2038223,72.3967238" id="Fill-3" sketch:type="MSShapeGroup"></path>
                <path d="M3.03956317,40.183867 C3.03956317,36.7019111 3.52087367,33.2850831 4.45966741,30.0032762 C4.68364358,29.2233309 4.23251427,28.4100273 3.45256888,28.1876396 C2.67262348,27.9636634 1.86090841,28.4147928 1.63693224,29.1947381 C0.623479772,32.7386448 0.102457185,36.4271035 0.102457185,40.183867 C0.102457185,44.7285182 0.864929263,49.1730951 2.33904195,53.3762224 C2.60749566,54.1402829 3.44462646,54.5437578 4.2102755,54.275304 C4.97433606,54.0068503 5.37781087,53.1697195 5.10935716,52.4040705 C3.74484984,48.5122859 3.03956317,44.3965252 3.03956317,40.183867" id="Fill-4" sketch:type="MSShapeGroup"></path>
                <path d="M41.4999255,39.9821296 C41.3506081,39.1847108 40.5817821,38.6605113 39.7859518,38.8114172 C38.9885331,38.9623232 38.4643336,39.7295607 38.6152395,40.5269794 C39.3618268,44.4743609 39.7398858,48.505932 39.7398858,52.5883346 C39.7398858,57.4776868 39.1966245,62.2955572 38.130752,66.979995 C37.9512534,67.7710598 38.4452718,68.5573591 39.2363366,68.7368578 C40.0274013,68.9179449 40.8137007,68.422338 40.9931993,67.6312733 C42.1083147,62.7339787 42.6754033,57.6968975 42.6754033,52.5883346 C42.6754033,48.3232564 42.2798709,44.1090097 41.4999255,39.9821296" id="Fill-5" sketch:type="MSShapeGroup"></path>
                <path d="M16.5273765,45.7562671 C16.5273765,45.7562671 16.5273765,45.7562671 16.5273765,45.7546786 C16.2509804,43.9914619 16.0826011,42.6253661 16.0015885,41.6087367 C15.9698188,41.2338546 15.953934,40.9272772 15.94758,40.6842393 C15.9444031,40.5222139 15.9459916,40.4110201 15.9491685,40.3443038 L15.9571109,40.2807645 L15.9571109,40.183867 C15.9571109,26.9279722 26.7032018,16.1818814 39.9590966,16.1818814 C42.1051378,16.1818814 44.2114669,16.4630429 46.2415488,17.0110697 C47.0230827,17.222338 47.8300323,16.7600894 48.0413006,15.976967 C48.2525689,15.1938446 47.7903202,14.3884835 47.0071978,14.1772152 C44.727724,13.5608836 42.3640606,13.2447754 39.9590966,13.2447754 C25.1067759,13.2447754 13.0613055,25.2680069 13.0231819,40.1123852 C13.0215934,40.131447 13.020005,40.1505088 13.0184165,40.1743361 C12.9659965,41.0670638 13.1137255,42.8969968 13.6045669,46.0644329 C13.6093323,46.1168528 13.6156863,46.1692728 13.6268057,46.2216927 C14.1017622,48.5408786 14.3432117,50.9156615 14.3432117,53.3222139 C14.3432117,57.9542318 13.4488955,62.4607595 11.7333333,66.6527674 C11.426756,67.4041201 11.7857533,68.2603127 12.537106,68.5684785 C13.2868702,68.8750558 14.1446513,68.5160586 14.4512286,67.7647059 C16.3097543,63.2200546 17.2787292,58.3370563 17.2787292,53.3222139 C17.2787292,50.7599901 17.0245719,48.2295359 16.5273765,45.7562671" id="Fill-6" sketch:type="MSShapeGroup"></path>
                <path d="M6.87257384,23.7827749 C12.9882353,11.4688508 25.4911889,3.44700918 39.4682552,3.26592207 C40.2799702,3.25480268 40.9280715,2.5892281 40.9169521,1.77910151 C40.9074212,0.967386448 40.2418466,0.319285182 39.4301315,0.330404567 C24.3411268,0.52737652 10.8437826,9.18461157 4.24204517,22.4770414 C3.88145942,23.2029784 4.17850583,24.0829983 4.90444279,24.443584 C5.63037975,24.8041698 6.51198809,24.5087118 6.87257384,23.7827749" id="Fill-7" sketch:type="MSShapeGroup"></path>
                <path d="M10.2020352,46.7109456 C8.8200546,40.0647307 9.62223877,33.6091338 12.2607099,27.7746339 C14.5751303,22.6597171 18.2302308,18.2453214 22.3634649,15.3145694 C23.024274,14.8459667 23.1815339,13.9294118 22.7113428,13.2686026 C22.2427401,12.6077935 21.3261852,12.4505336 20.665376,12.9207247 C16.1080169,16.1501117 12.1145694,20.9727476 9.58570365,26.5642095 C6.75820303,32.8164805 5.8559444,39.7375031 7.23474808,46.8427898 C7.23474808,46.9380988 7.24269049,47.0334078 7.26016381,47.1303053 C7.67316952,49.3001737 7.88284934,51.5176967 7.88284934,53.7622239 C7.88284934,56.3927525 7.59533383,58.9835691 7.02983371,61.5044924 C6.85351204,62.2955572 7.35070737,63.0818565 8.14177215,63.2581782 C8.93283693,63.4360884 9.71754778,62.938893 9.89545793,62.1478282 C10.5070241,59.4156366 10.8199553,56.6087863 10.8199553,53.7622239 C10.8199553,51.4970464 10.6198064,49.2588732 10.2306279,47.060412 C10.2338049,46.9460412 10.2258625,46.8284934 10.2020352,46.7109456" id="Fill-8" sketch:type="MSShapeGroup"></path>
                <path d="M29.4560437,45.9659469 C29.4751055,45.7610325 29.4512782,45.5481757 29.378208,45.3416729 C29.2082403,44.8651278 29.0557458,44.2233805 28.9286672,43.4656739 C28.8079424,42.7397369 28.7158104,41.9518491 28.6506826,41.1639613 C28.6268553,40.8859767 28.609382,40.6302308 28.5966741,40.3999007 C28.5919087,40.3204765 28.5871432,40.2505833 28.5839662,40.1902209 C28.5839662,40.1791015 28.5839662,40.1695706 28.5823778,40.1616282 C28.5887317,37.4310251 29.5561181,34.8545048 31.2891536,32.8164805 C31.8149417,32.1985604 31.7402829,31.2724746 31.1223629,30.7466865 C30.5044428,30.222487 29.5783569,30.2971457 29.0525689,30.9134773 C26.8684041,33.4836436 25.6468603,36.7416232 25.6468603,40.183867 L25.6468603,40.2124597 L25.6484487,40.2426409 C25.6500372,40.3061802 25.6563912,40.4189625 25.6643336,40.5730454 C25.6802184,40.8256143 25.6992802,41.1051874 25.724696,41.4069993 C25.7961777,42.2695458 25.8962522,43.1352693 26.0328618,43.9501613 C26.1567635,44.6872177 26.3044924,45.3480268 26.4808141,45.9246463 C26.4839911,45.9627699 26.487168,46.0008935 26.4951104,46.0390171 C26.9065277,48.4280963 27.114619,50.861653 27.114619,53.3222139 C27.114619,60.484686 25.3514023,67.656689 22.1379002,73.9391412 C21.7677836,74.6619012 22.0537106,75.545098 22.7764706,75.9152147 C23.4976421,76.2837429 24.3824274,75.9994043 24.7509556,75.2766443 C28.175726,68.5843634 30.0501365,60.9548771 30.0501365,53.3222139 C30.0501365,50.8394142 29.8499876,48.3820303 29.4560437,45.9659469" id="Fill-9" sketch:type="MSShapeGroup"></path>
                <path d="M73.455448,51.0983371 C72.6453214,51.1142219 72.0003971,51.7845619 72.016282,52.5946885 C72.0289898,53.2284934 72.0353438,53.8622983 72.0353438,54.4961033 C72.0353438,55.8796724 72.0067511,57.258476 71.9463887,58.6341028 C71.911442,59.4442293 72.538893,60.1288657 73.3490196,60.1638124 C74.1591462,60.198759 74.8453711,59.571308 74.8803177,58.7611814 C74.9406801,57.3426657 74.9724497,55.9225614 74.9724497,54.4961033 C74.9724497,53.8432365 74.9645073,53.1887813 74.9517995,52.5359146 C74.9359146,51.725788 74.2655746,51.0824522 73.455448,51.0983371" id="Fill-10" sketch:type="MSShapeGroup"></path>
                <path d="M66.2357905,34.2270539 C64.6060065,27.0105733 60.0518243,20.790072 53.7217175,17.0221891 C53.0243733,16.6060065 52.1237032,16.8347481 51.709109,17.5320923 C51.2945148,18.2278481 51.5232564,19.1285182 52.2190122,19.5447009 C57.8962522,22.9234053 61.9707123,28.5148672 63.398759,34.9911144 C63.4082899,35.0340035 63.4209978,35.0737156 63.4321172,35.1150161 C64.8522214,41.3768181 65.5765699,47.8149417 65.5765699,54.3499628 C65.5765699,59.0582278 65.2000993,63.7188384 64.4582775,68.3016133 C64.3296103,69.102209 64.8728717,69.8551502 65.6734674,69.9854058 C66.474063,70.1156615 67.2270042,69.5708116 67.3572599,68.7702159 C68.1244974,64.0333582 68.5120874,59.2154877 68.5120874,54.3499628 C68.5120874,47.5607843 67.7575577,40.8700918 66.2739141,34.3636634 C66.2627947,34.3175974 66.2500869,34.2715314 66.2357905,34.2270539" id="Fill-11" sketch:type="MSShapeGroup"></path>
                <path d="M73.215587,46.8713825 C74.0225366,46.7951353 74.615041,46.0787292 74.5387937,45.2717796 C74.1575577,41.235443 73.5253413,37.246761 72.6500869,33.3216183 C72.6500869,33.3184413 72.6500869,33.3152643 72.6484984,33.3120874 C69.4365848,17.9578059 55.842343,6.78600149 39.9590966,6.78600149 C35.5907669,6.78600149 31.3352197,7.62630926 27.3719533,9.24020849 C26.6206006,9.54519732 26.2600149,10.4013899 26.5665922,11.1527426 C26.871581,11.9040953 27.7293621,12.2646811 28.4791263,11.9596922 C32.0913378,10.4887565 35.972003,9.72151899 39.9590966,9.72151899 C54.446066,9.72151899 66.8457682,19.9132291 69.7749317,33.9125341 C69.7765202,33.9172996 69.7781087,33.922065 69.7781087,33.925242 C69.7796972,33.9347729 69.7812857,33.9427153 69.7828742,33.9506577 C70.6327128,37.7598412 71.2458675,41.6309754 71.6159841,45.5481757 C71.6922313,46.3551253 72.4070489,46.9476297 73.215587,46.8713825" id="Fill-12" sketch:type="MSShapeGroup"></path>
                <path d="M47.4233805,59.3743361 C46.6164309,59.285381 45.8904939,59.8667659 45.8015388,60.6721271 C45.1470836,66.5685778 43.6920328,72.2982378 41.4872177,77.7340283 C41.1822288,78.485381 41.5444031,79.3415736 42.2957558,79.6465624 C43.0471085,79.9515513 43.9033011,79.589377 44.2067014,78.8380243 C46.5131794,73.1528419 48.0365351,67.1610822 48.719583,60.9961777 C48.8085381,60.1892281 48.2287416,59.4632911 47.4233805,59.3743361" id="Fill-13" sketch:type="MSShapeGroup"></path>
                <path d="M46.8991809,0.929262844 C46.1017622,0.789476297 45.3408786,1.32320675 45.1995036,2.12062547 C45.0597171,2.91963266 45.5934475,3.68051626 46.3924547,3.8203028 C63.9166046,6.89878382 76.8802184,22.1879375 76.8802184,40.183867 C76.8802184,40.9939935 77.5378506,41.6516257 78.3479772,41.6516257 C79.1596922,41.6516257 79.8157359,40.9939935 79.8157359,40.183867 C79.8157359,20.7567138 65.8227848,4.25237032 46.8991809,0.929262844" id="Fill-14" sketch:type="MSShapeGroup"></path>
                <path d="M54.0791263,37.8297344 C52.9433606,30.9690742 46.988136,25.8700422 39.9590966,25.8700422 C38.3023083,25.8700422 36.6836436,26.1527923 35.1523455,26.6976421 C34.3882849,26.9708613 33.9911641,27.8095805 34.2627947,28.5736411 C34.5344254,29.3377017 35.3747332,29.7348225 36.1387937,29.4631919 C37.3539836,29.0311243 38.6406552,28.8055597 39.9590966,28.8055597 C45.54897,28.8055597 50.2858277,32.864135 51.1849094,38.3158104 C51.1880864,38.3364607 51.1928518,38.3571109 51.1976173,38.3777612 C51.2007942,38.3936461 51.2023827,38.4079424 51.2055597,38.4238273 C52.1681807,43.1463887 52.6574336,47.9817324 52.6574336,52.882204 C52.6574336,61.0787789 51.2865724,69.0863241 48.6353934,76.6618019 C48.3669397,77.4258625 48.7704145,78.2629933 49.5360635,78.531447 C50.3001241,78.7999007 51.1388434,78.3964259 51.4057086,77.6307769 C54.1664929,69.7455448 55.5945396,61.4107719 55.5945396,52.882204 C55.5945396,47.7847605 55.0846364,42.7524448 54.0823033,37.8376768 C54.0807148,37.8344999 54.0807148,37.8329114 54.0791263,37.8297344" id="Fill-15" sketch:type="MSShapeGroup"></path>
                <path d="M58.0932241,33.2993795 C57.3069248,33.4963515 56.8287913,34.2937702 57.0257632,35.0800695 C58.5078183,40.9971705 59.2639365,47.109655 59.2639365,53.3222139 C59.2639365,60.1812857 58.342616,66.9148672 56.5428642,73.3974684 C56.325242,74.1790022 56.7827252,74.9875403 57.5642591,75.2051626 C58.345793,75.4211963 59.1543311,74.9637131 59.3719533,74.1821792 C61.2415984,67.4454207 62.199454,60.4465624 62.199454,53.3222139 C62.199454,46.8682055 61.4147431,40.51586 59.8739141,34.3668404 C59.6769422,33.5805411 58.8811119,33.1024075 58.0932241,33.2993795" id="Fill-16" sketch:type="MSShapeGroup"></path>
                <path d="M40.0321668,19.5574088 C28.6014396,19.5574088 19.3342269,28.8246215 19.3342269,40.2569372 L19.3342269,40.2871184 L19.3358153,40.3172996 C19.3374038,40.3792504 19.3437578,40.4888558 19.3517002,40.6397617 C19.3659965,40.8891536 19.3834698,41.1671382 19.4057086,41.4641847 C19.469248,42.3172003 19.5566145,43.1702159 19.6709854,43.9739886 C19.7901216,44.8047655 19.9299082,45.5354679 20.1014644,46.1517995 C20.4684041,48.410623 20.6558451,50.7075701 20.6558451,53.0283445 C20.6558451,54.3467858 20.5954828,55.6588732 20.4763465,56.9598412 C20.4016878,57.7683793 20.9973691,58.4816083 21.8043187,58.5562671 C22.6112683,58.6293373 23.3260859,58.0352445 23.4007446,57.2282949 C23.5278233,55.8383718 23.5913626,54.4373294 23.5913626,53.0283445 C23.5913626,50.4454703 23.3753289,47.8896004 22.9512038,45.378208 C22.9305535,45.2543063 22.8924299,45.138347 22.8431869,45.0287416 C22.7462894,44.6109705 22.6573343,44.1169521 22.5779102,43.5609829 C22.4746587,42.828692 22.3936461,42.0376272 22.3332837,41.2433855 C22.3126334,40.9654008 22.2967486,40.7080665 22.2824522,40.4761479 C22.2792753,40.3967238 22.2745098,40.325242 22.2713328,40.2648796 C22.2713328,40.2505833 22.2713328,40.2410524 22.2697444,40.2315215 C22.2840407,30.4321668 30.2312236,22.4945148 40.0321668,22.4945148 C45.4647803,22.4945148 50.4907421,24.9455448 53.8456193,29.0867213 C54.3555225,29.7173492 55.2800199,29.8142467 55.9090593,29.3043435 C56.5396873,28.7928518 56.6365848,27.8683544 56.1266816,27.239315 C52.2221891,22.4166791 46.360685,19.5574088 40.0321668,19.5574088" id="Fill-17" sketch:type="MSShapeGroup"></path>
            </g>
        </g>
    </g>
</svg>