<?xml version="1.0" encoding="UTF-8" standalone="no"?>
<svg width="216px" height="216px" viewBox="0 0 216 216" version="1.1" xmlns="http://www.w3.org/2000/svg" xmlns:xlink="http://www.w3.org/1999/xlink" xmlns:sketch="http://www.bohemiancoding.com/sketch/ns">
    <!-- Generator: Sketch 3.3.2 (12043) - http://www.bohemiancoding.com/sketch -->
    <title>Oval 66 + Imported Layers</title>
    <desc>Created with Sketch.</desc>
    <defs></defs>
    <g id="Page-1" stroke="none" stroke-width="1" fill="none" fill-rule="evenodd" sketch:type="MSPage">
        <g id="Filtr-Copy-7" sketch:type="MSArtboardGroup" transform="translate(-432.000000, -625.000000)">
            <g id="Oval-66-+-Imported-Layers" sketch:type="MSLayerGroup" transform="translate(432.000000, 625.000000)">
                <circle id="Oval-66" fill="#D8DFE1" sketch:type="MSShapeGroup" cx="108" cy="108" r="108"></circle>
                <g id="Imported-Layers" transform="translate(46.285714, 46.285714)" fill="#667980" sketch:type="MSShapeGroup">
                    <path d="M32.5111286,96.8091735 C31.3004319,96.4930199 30.0652271,97.2209084 29.7490735,98.4291543 C28.7736539,102.173981 27.4698266,105.810973 25.8547474,109.308269 C25.3302755,110.445442 25.8253377,111.790933 26.9625104,112.315405 C28.0972322,112.839877 29.4427231,112.342364 29.967195,111.207642 C31.6950112,107.467716 33.0895181,103.575841 34.1335603,99.5712286 C34.4472631,98.3629827 33.7218253,97.1253271 32.5111286,96.8091735" id="Fill-1"></path>
                    <path d="M54.9678375,65.9192511 C54.9653867,65.7869078 54.9531326,65.6521136 54.9261738,65.5173194 C54.7472652,64.6203255 54.6320774,63.7331348 54.5683566,62.8998617 C54.5462993,62.610667 54.5315945,62.3508818 54.5242421,62.1254079 C54.5193405,61.9979662 54.5168897,61.9146389 54.5168897,61.8852292 C54.5168897,57.880617 57.761753,54.6357536 61.7639145,54.6357536 C65.1043591,54.6357536 67.9717987,56.9174513 68.7805638,60.0838889 C68.7879162,60.2039783 68.802621,60.3216168 68.8295798,60.4417062 C70.4520115,67.6225593 71.2779321,75.0043783 71.2779321,82.4940325 C71.2779321,83.7463929 72.2925646,84.7585746 73.5424742,84.7585746 C74.7948346,84.7585746 75.8070163,83.7463929 75.8070163,82.4940325 C75.8070163,74.8254696 74.976194,67.2622912 73.34641,59.8976279 C73.3439592,59.772637 73.3317051,59.647646 73.3047463,59.522655 C72.1969833,54.0769705 67.3885076,50.1066695 61.7639145,50.1066695 C55.259483,50.1066695 49.9878056,55.378347 49.9878056,61.8852292 C49.9878056,62.1646208 50.0049612,62.6327242 50.0515264,63.2478758 C50.1201489,64.1350665 50.2402383,65.0737241 50.4166961,66.0295373 C50.4191469,66.1104138 50.4289501,66.1912903 50.4412041,66.2746176 C51.1936007,70.9335943 51.5734752,75.6709967 51.5734752,80.4574152 C51.5734752,93.4589256 48.762404,106.058504 43.4123008,117.591984 C42.8853782,118.726706 43.3779896,120.072197 44.5127114,120.599119 C45.6474333,121.126042 46.995375,120.63343 47.5222976,119.498709 C53.1493416,107.369684 56.1025593,94.1206425 56.1025593,80.4574152 C56.1025593,75.5533582 55.720234,70.6983172 54.9678375,65.9192511" id="Fill-2"></path>
                    <path d="M58.9430401,111.697802 C57.7568514,111.295871 56.4726306,111.933079 56.0706989,113.116817 C55.8427742,113.788337 55.5070141,114.709839 55.0879268,115.812701 C55.048714,115.915635 55.0095011,116.018568 54.9702883,116.121502 C54.6492331,116.967029 54.301219,117.856671 53.9556558,118.734058 C53.8355664,119.040408 53.7228295,119.324702 53.6223466,119.577134 C53.5880353,119.665363 53.5561749,119.743789 53.529216,119.812411 C53.5022572,119.878583 53.5022572,119.878583 53.4973556,119.893288 C53.031703,121.052518 53.5953877,122.373501 54.7570684,122.836702 C55.9162983,123.302355 57.2348303,122.73867 57.7004829,121.57944 C57.7078353,121.562285 57.7078353,121.562285 57.7347942,121.491212 C57.761753,121.422589 57.7936134,121.341713 57.8303755,121.253484 C57.9333092,120.993699 58.048497,120.706955 58.1710371,120.395703 C58.521502,119.50361 58.8744176,118.599264 59.2028252,117.736581 C59.2444889,117.628746 59.2837017,117.523361 59.3229146,117.417977 C59.7591575,116.271001 60.1120732,115.302934 60.3620551,114.570144 C60.761536,113.386406 60.126778,112.099734 58.9430401,111.697802" id="Fill-3"></path>
                    <path d="M4.68961174,61.9979662 C4.68961174,56.6258058 5.43220508,51.3541283 6.88062972,46.2907691 C7.22619296,45.0874247 6.53016488,43.8326136 5.32682055,43.4895011 C4.12347623,43.1439379 2.87111584,43.839966 2.5255526,45.0433103 C0.961940219,50.511052 0.1580768,56.2018168 0.1580768,61.9979662 C0.1580768,69.0097139 1.33446229,75.867061 3.60880757,82.351886 C4.0229933,83.5307223 5.31456654,84.1532263 6.49585363,83.7390405 C7.67468993,83.3248548 8.29719392,82.0332816 7.88300819,80.8519945 C5.77776832,74.8475269 4.68961174,68.497496 4.68961174,61.9979662" id="Fill-4"></path>
                    <path d="M64.0284565,61.6867142 C63.7980811,60.456411 62.6118924,59.647646 61.38404,59.8804723 C60.1537368,60.1132986 59.3449718,61.2970365 59.5777981,62.5273396 C60.7296756,68.6175854 61.3129667,74.8377236 61.3129667,81.1362876 C61.3129667,88.6798596 60.474792,96.1131454 58.8303032,103.340564 C58.5533624,104.561064 59.3155622,105.774211 60.5360621,106.051152 C61.7565621,106.330544 62.9697096,105.565893 63.2466504,104.345393 C64.9671141,96.7895671 65.8420508,89.0180704 65.8420508,81.1362876 C65.8420508,74.5558813 65.2318009,68.0539006 64.0284565,61.6867142" id="Fill-5"></path>
                    <path d="M25.4993809,70.5953835 C25.4993809,70.5953835 25.4993809,70.5953835 25.4993809,70.5929327 C25.0729412,67.8725412 24.813156,65.7648505 24.6881651,64.1963366 C24.639149,63.617947 24.614641,63.144942 24.6048378,62.7699692 C24.5999362,62.5199872 24.602387,62.348431 24.6072886,62.2454973 L24.6195426,62.1474652 L24.6195426,61.9979662 C24.6195426,41.5460143 41.1992256,24.9663312 61.6511775,24.9663312 C64.9622125,24.9663312 68.2119774,25.4001234 71.3441038,26.2456505 C72.5498989,26.5716073 73.7949069,25.8584236 74.1208637,24.6501776 C74.4468206,23.4419317 73.7336368,22.1993745 72.5253909,21.8734177 C69.0084885,20.9225061 65.3616934,20.4347963 61.6511775,20.4347963 C38.7361685,20.4347963 20.1517285,38.984925 20.0929093,61.88768 C20.0904585,61.9170897 20.0880077,61.9464993 20.0855569,61.9832614 C20.0046804,63.3606127 20.232605,66.1839379 20.9899032,71.0708393 C20.9972556,71.1517158 21.0070588,71.2325923 21.0242144,71.3134688 C21.7570046,74.8916413 22.1295266,78.555592 22.1295266,82.2685587 C22.1295266,89.4151005 20.7497245,96.3680289 18.1028571,102.835698 C17.6298521,103.994928 18.1837336,105.315911 19.3429635,105.791367 C20.4997426,106.264372 21.8231763,105.71049 22.2961813,104.551261 C25.1636209,97.5395128 26.6586108,90.0057441 26.6586108,82.2685587 C26.6586108,78.3154133 26.2664823,74.4112839 25.4993809,70.5953835" id="Fill-6"></path>
                    <path d="M10.6033996,36.6934241 C20.0389916,17.6947984 39.3292628,5.31824274 60.8938794,5.03885119 C62.1462398,5.02169556 63.1461674,3.99480906 63.1290118,2.74489948 C63.114307,1.49253909 62.0874205,0.492611424 60.8350601,0.509767046 C37.5548814,0.813666631 16.7304074,14.1705436 6.54486969,34.678864 C5.98853739,35.798881 6.44683757,37.1566259 7.56685459,37.7129582 C8.68687161,38.2692905 10.0470673,37.8134411 10.6033996,36.6934241" id="Fill-7"></path>
                    <path d="M15.7402829,72.0683161 C13.6080842,61.8141559 14.8457398,51.8540921 18.9165238,42.8522923 C22.4873439,34.9607063 28.1266418,28.1499245 34.5036315,23.6281927 C35.5231656,22.9052058 35.7657951,21.4910924 35.0403574,20.4715583 C34.3173705,19.4520243 32.9032571,19.2093947 31.883723,19.9348325 C24.8523689,24.9173152 18.6910499,32.3579534 14.7893713,40.9847803 C10.4269418,50.6311414 9.03488565,61.3092905 11.1621827,72.2717328 C11.1621827,72.418781 11.1744368,72.5658292 11.2013956,72.7153282 C11.8386044,76.0631252 12.1621104,79.4844463 12.1621104,82.9474311 C12.1621104,87.0059611 11.7185151,91.0032209 10.8460291,94.8926455 C10.57399,96.1131454 11.3410914,97.3262929 12.5615913,97.5983321 C13.7820913,97.872822 14.992788,97.1057207 15.2672779,95.8852207 C16.2108371,91.6698394 16.6936454,87.3392703 16.6936454,82.9474311 C16.6936454,79.4525859 16.3848442,75.9994043 15.7843974,72.6074928 C15.789299,72.431035 15.777045,72.2496756 15.7402829,72.0683161" id="Fill-8"></path>
                    <path d="M45.4464674,70.9188895 C45.475877,70.6027359 45.439115,70.2743283 45.326378,69.9557239 C45.0641421,69.2204829 44.828865,68.2303585 44.6328008,67.0613254 C44.4465397,65.9413084 44.3043931,64.72571 44.2039102,63.5101117 C44.1671482,63.0812211 44.1401893,62.6866418 44.1205829,62.3312754 C44.1132305,62.2087352 44.1058781,62.1008999 44.1009765,62.0077694 C44.1009765,61.9906138 44.1009765,61.9759089 44.0985257,61.9636549 C44.1083289,57.7507244 45.600868,53.7755218 48.2746942,50.6311414 C49.08591,49.677779 48.9707223,48.2489607 48.0173599,47.4377449 C47.0639974,46.6289799 45.6351792,46.7441676 44.8239634,47.6950792 C41.4541091,51.6604787 39.5694415,56.6870758 39.5694415,61.9979662 L39.5694415,62.0420806 L39.5718924,62.0886459 C39.5743432,62.186678 39.5841464,62.360685 39.5964004,62.5984129 C39.6209084,62.9880906 39.6503181,63.419432 39.6895309,63.8850846 C39.799817,65.2158707 39.9542176,66.5515583 40.1649867,67.8088203 C40.3561493,68.945993 40.584074,69.9655271 40.8561132,70.8551686 C40.8610148,70.9139879 40.8659164,70.9728071 40.8781704,71.0316264 C41.5129284,74.7176343 41.8339836,78.4722647 41.8339836,82.2685587 C41.8339836,93.3192299 39.1135922,104.384606 34.1556175,114.077532 C33.5845804,115.192648 34.0257249,116.555294 35.1408403,117.126331 C36.2535049,117.694918 37.6186023,117.256224 38.1871886,116.141108 C43.4711201,105.815875 46.3630678,94.0446676 46.3630678,82.2685587 C46.3630678,78.4379534 46.0542666,74.646561 45.4464674,70.9188895" id="Fill-9"></path>
                    <path d="M113.331263,78.8374343 C112.081353,78.8619423 111.086327,79.8961813 111.110835,81.1460908 C111.130441,82.1239613 111.140245,83.1018317 111.140245,84.0797022 C111.140245,86.2143517 111.09613,88.3416488 111.003,90.4640443 C110.949082,91.7139538 111.917149,92.77025 113.167059,92.8241676 C114.416968,92.8780853 115.475715,91.9100181 115.529633,90.6601085 C115.622764,88.4715413 115.67178,86.2805233 115.67178,84.0797022 C115.67178,83.0724221 115.659526,82.0626912 115.639919,81.0554111 C115.615411,79.8055015 114.581172,78.8129263 113.331263,78.8374343" id="Fill-10"></path>
                    <path d="M102.192363,52.8074545 C99.6778385,41.673456 92.651386,32.0761111 82.8849356,26.2628061 C81.8090331,25.6206957 80.4194277,25.9736113 79.7797681,27.0495139 C79.1401085,28.1229656 79.4930241,29.512571 80.5664759,30.1546814 C89.3256462,35.3675396 95.6119562,43.9943666 97.8152282,53.9862908 C97.829933,54.0524625 97.8495394,54.1137326 97.866695,54.1774535 C100.057713,63.8385193 101.175279,73.7716243 101.175279,83.8542283 C101.175279,91.1184087 100.594439,98.309065 99.4499138,105.379632 C99.2513988,106.614837 100.089573,107.776517 101.324778,107.977483 C102.559983,108.178449 103.721664,107.337824 103.92263,106.102619 C105.106367,98.794324 105.704363,91.3610382 105.704363,83.8542283 C105.704363,73.3794958 104.540232,63.0567131 102.251182,53.0182236 C102.234026,52.9471503 102.21442,52.876077 102.192363,52.8074545" id="Fill-11"></path>
                    <path d="M112.961191,72.3158473 C114.206199,72.1982087 115.120349,71.0928965 115.00271,69.8478885 C114.414518,63.6203978 113.439098,57.4664312 112.088705,51.4104968 C112.088705,51.4055951 112.088705,51.4006935 112.086255,51.3957919 C107.130731,27.7063291 86.1567578,10.4698309 61.6511775,10.4698309 C54.911469,10.4698309 48.3457675,11.7663057 42.2310137,14.2563217 C41.0717839,14.7268759 40.5154515,16.0478587 40.9884565,17.2070886 C41.4590107,18.3663185 42.7824444,18.9226508 43.9392235,18.4520966 C49.5123498,16.1826529 55.4996617,14.998915 61.6511775,14.998915 C84.0025019,14.998915 103.133471,30.7232677 107.652752,52.3221955 C107.655203,52.3295479 107.657653,52.3369003 107.657653,52.3418019 C107.660104,52.3565068 107.662555,52.3687608 107.665006,52.3810148 C108.976186,58.2580406 109.922196,64.2306478 110.493233,70.2743283 C110.610871,71.5193362 111.713733,72.4334858 112.961191,72.3158473" id="Fill-12"></path>
                    <path d="M73.1675013,91.6061185 C71.9224934,91.4688735 70.8024763,92.3658675 70.6652314,93.6084246 C69.6555005,102.705806 67.4105648,111.545853 64.0088501,119.932501 C63.5382959,121.091731 64.097079,122.412714 65.2563089,122.883268 C66.4155388,123.353822 67.7365216,122.795039 68.204625,121.635809 C71.7631911,112.864385 74.1135113,103.619955 75.1673567,94.1083885 C75.3046016,92.8633805 74.4100585,91.7433635 73.1675013,91.6061185" id="Fill-13"></path>
                    <path d="M72.3587363,1.43371982 C71.1284331,1.21804914 69.9544985,2.04151899 69.736377,3.27182215 C69.5207063,4.50457611 70.3441762,5.6785108 71.5769301,5.89418147 C98.61419,10.6438379 118.615194,34.2328178 118.615194,61.9979662 C118.615194,63.2478758 119.629827,64.2625082 120.879736,64.2625082 C122.132097,64.2625082 123.144278,63.2478758 123.144278,61.9979662 C123.144278,32.0246442 101.555154,6.56079991 72.3587363,1.43371982" id="Fill-14"></path>
                    <path d="M83.4363663,58.365876 C81.6840421,47.7808574 72.4959813,39.9137794 61.6511775,39.9137794 C59.0949899,39.9137794 56.5976215,40.3500223 54.2350473,41.1906478 C53.056211,41.6121859 52.4435103,42.90621 52.8625976,44.0850463 C53.2816849,45.2638826 54.5781598,45.8765833 55.7569961,45.457496 C57.6318604,44.7908776 59.617011,44.4428635 61.6511775,44.4428635 C70.2755537,44.4428635 77.5838485,50.7046655 78.9710031,59.1158217 C78.9759047,59.1476822 78.9832571,59.1795426 78.9906095,59.211403 C78.9955111,59.2359111 78.9979619,59.2579683 79.0028635,59.2824763 C80.4880502,66.568714 81.2428976,74.0289586 81.2428976,81.5896862 C81.2428976,94.2358302 79.1278545,106.590329 75.0374641,118.278209 C74.6232784,119.457045 75.2457824,120.748618 76.4270695,121.162804 C77.6059058,121.57699 78.8999298,120.954486 79.3116647,119.773199 C83.5711605,107.607412 85.7744325,94.7480481 85.7744325,81.5896862 C85.7744325,73.725059 84.9877247,65.9609148 83.441268,58.37813 C83.4388171,58.3732284 83.4388171,58.3707776 83.4363663,58.365876" id="Fill-15"></path>
                    <path d="M89.6295458,51.3761855 C88.4163983,51.6800851 87.6787065,52.9103883 87.9826061,54.1235358 C90.2692054,63.2527774 91.4357877,72.6834677 91.4357877,82.2685587 C91.4357877,92.8511265 90.0143219,103.240081 87.237562,113.241808 C86.9018019,114.447603 87.6076332,115.695062 88.8134284,116.030822 C90.0192235,116.364131 91.2666823,115.6583 91.6024423,114.452505 C94.4870375,104.058649 95.9648718,93.2604106 95.9648718,82.2685587 C95.9648718,72.3109456 94.7541751,62.510184 92.3768961,53.0231252 C92.0729965,51.8099777 90.8451441,51.0722859 89.6295458,51.3761855" id="Fill-16"></path>
                    <path d="M61.7639145,30.1742878 C44.1279353,30.1742878 29.82995,44.4722732 29.82995,62.1107031 L29.82995,62.1572684 L29.8324008,62.2038336 C29.8348516,62.299415 29.8446548,62.4685204 29.8569088,62.7013467 C29.8789661,63.0861228 29.9059249,63.5150133 29.9402361,63.9733135 C30.0382683,65.2893947 30.1730624,66.605476 30.3495203,67.8455824 C30.5333305,69.1273524 30.7490012,70.2547218 31.0136879,71.2056334 C31.5798234,74.6906755 31.8690182,78.2345368 31.8690182,81.8151601 C31.8690182,83.8493267 31.7758877,85.87369 31.5920774,87.8808978 C31.4768897,89.1283566 32.3959409,90.2287672 33.6409488,90.3439549 C34.8859568,90.4566918 35.9888182,89.5400915 36.104006,88.2950835 C36.3000702,86.1506308 36.3981023,83.9890224 36.3981023,81.8151601 C36.3981023,77.8301542 36.0647931,73.886812 35.4104287,70.0120923 C35.3785682,69.8209297 35.319749,69.6420211 35.2437741,69.4729156 C35.0942751,68.8283544 34.9570301,68.0661547 34.8344899,67.2083736 C34.6751877,66.0785533 34.5501968,64.8580534 34.4570663,63.6326518 C34.4252058,63.2037613 34.4006978,62.8067312 34.3786406,62.4489139 C34.373739,62.3263738 34.3663866,62.2160877 34.3614849,62.1229571 C34.3614849,62.1008999 34.3614849,62.0861951 34.3590341,62.0714903 C34.3810914,46.9524859 46.6424593,34.7058228 61.7639145,34.7058228 C70.1456611,34.7058228 77.9000021,38.487412 83.0760983,44.8766557 C83.8628061,45.8496245 85.2891735,45.9991235 86.2596915,45.2124157 C87.2326604,44.4232571 87.3821593,42.9968897 86.5954515,42.0263717 C80.5713775,34.5857334 71.5279141,30.1742878 61.7639145,30.1742878" id="Fill-17"></path>
                </g>
            </g>
        </g>
    </g>
</svg>