<svg width="32px" height="42px" viewBox="0 0 32 42" version="1.1" xmlns="http://www.w3.org/2000/svg" xmlns:xlink="http://www.w3.org/1999/xlink" xmlns:sketch="http://www.bohemiancoding.com/sketch/ns">
    <!-- Generator: Sketch 3.3.2 (12043) - http://www.bohemiancoding.com/sketch -->
    <title>Imported Layers Copy 5</title>
    <desc>Created with Sketch.</desc>
    <defs></defs>
    <g id="Page-1" stroke="none" stroke-width="1" fill="none" fill-rule="evenodd" sketch:type="MSPage">
        <g id="Mobile-Portrait-Copy-14" sketch:type="MSArtboardGroup" transform="translate(-439.000000, -1629.000000)" fill="#CCD5D9">
            <g id="Operations" sketch:type="MSLayerGroup" transform="translate(48.000000, 304.000000)">
                <g id="First" transform="translate(2.000000, 1322.000000)" sketch:type="MSShapeGroup">
                    <path d="M416.3189,19.8021 L416.3,14.55 C416.3,9.3 412.0328,3 404.6828,3 C397.3328,3 393.2,9.3 393.2,14.55 L393.2,19.8 C390.89,19.8 389,21.69 389,24 L389,30.3 C389,38.9121 395.3,45 404.75,45 C414.2,45 420.5,38.9121 420.5,30.3 L420.5,24 C420.5,21.6963 418.6205,19.8126 416.3189,19.8021 L416.3189,19.8021 Z M406.85,31.5831 L406.85,34.5 C406.85,35.6592 405.9092,36.6 404.75,36.6 C403.5908,36.6 402.65,35.6592 402.65,34.5 L402.65,31.5831 C402.0095,31.0056 401.6,30.1782 401.6,29.25 C401.6,27.5091 403.0112,26.1 404.75,26.1 C406.4888,26.1 407.9,27.5091 407.9,29.25 C407.9,30.1782 407.4905,31.0056 406.85,31.5831 L406.85,31.5831 Z M399.5,19.8 L399.5,14.55 C399.5,12.9057 400.8062,9.3 404.6828,9.3 C408.4397,9.3 410,12.7188 410,14.5731 L410.0189,19.8 L399.5,19.8 L399.5,19.8 Z" id="Imported-Layers-Copy-5"></path>
                </g>
            </g>
        </g>
    </g>
</svg>