<svg width="32px" height="34px" viewBox="0 0 32 34" version="1.1" xmlns="http://www.w3.org/2000/svg" xmlns:xlink="http://www.w3.org/1999/xlink" xmlns:sketch="http://www.bohemiancoding.com/sketch/ns">
    <!-- Generator: Sketch 3.3.2 (12043) - http://www.bohemiancoding.com/sketch -->
    <title>Imported Layers</title>
    <desc>Created with Sketch.</desc>
    <defs></defs>
    <g id="Page-1" stroke="none" stroke-width="1" fill="none" fill-rule="evenodd" sketch:type="MSPage">
        <g id="Menu" sketch:type="MSArtboardGroup" transform="translate(-175.000000, -1002.000000)" fill="#FFFFFF">
            <g id="Imported-Layers" sketch:type="MSLayerGroup" transform="translate(175.000000, 1002.000000)">
                <path d="M21.391,5.236 C20.996,6.17 21.381,7.222 22.247,7.75 C23.056,8.245 23.805,8.834 24.485,9.515 C25.589,10.618 26.454,11.902 27.059,13.33 C27.683,14.807 28,16.378 28,18 C28,19.622 27.683,21.193 27.059,22.67 C26.454,24.098 25.589,25.382 24.485,26.485 C23.382,27.589 22.098,28.454 20.67,29.059 C19.193,29.683 17.622,30 16,30 C14.378,30 12.807,29.683 11.33,29.059 C9.902,28.454 8.618,27.589 7.515,26.485 C6.411,25.382 5.546,24.098 4.941,22.67 C4.317,21.193 4,19.622 4,18 C4,16.378 4.317,14.807 4.941,13.33 C5.546,11.902 6.411,10.618 7.515,9.515 C8.195,8.834 8.944,8.245 9.753,7.75 C10.619,7.222 11.004,6.17 10.609,5.236 C10.129,4.101 8.753,3.678 7.7,4.318 C6.602,4.986 5.59,5.782 4.686,6.686 C3.239,8.134 2.067,9.858 1.257,11.772 C0.448,13.686 0,15.791 0,18 C0,20.209 0.448,22.314 1.257,24.228 C2.067,26.142 3.239,27.866 4.686,29.314 C6.134,30.761 7.858,31.933 9.772,32.743 C11.686,33.552 13.791,34 16,34 C18.209,34 20.314,33.552 22.228,32.743 C24.142,31.933 25.866,30.761 27.314,29.314 C28.761,27.866 29.933,26.142 30.743,24.228 C31.552,22.314 32,20.209 32,18 C32,15.791 31.552,13.686 30.743,11.772 C29.933,9.858 28.761,8.134 27.314,6.686 C26.41,5.782 25.398,4.986 24.3,4.318 C23.247,3.678 21.871,4.101 21.391,5.236" id="Fill-1" sketch:type="MSShapeGroup"></path>
                <path d="M16,18 L16,18 C14.9,18 14,17.1 14,16 L14,2 C14,0.9 14.9,0 16,0 C17.1,0 18,0.9 18,2 L18,16 C18,17.1 17.1,18 16,18" id="Fill-2" sketch:type="MSShapeGroup"></path>
            </g>
        </g>
    </g>
</svg>