<svg width="144px" height="144px" viewBox="0 0 144 144" version="1.1" xmlns="http://www.w3.org/2000/svg" xmlns:xlink="http://www.w3.org/1999/xlink" xmlns:sketch="http://www.bohemiancoding.com/sketch/ns">
    <!-- Generator: Sketch 3.3.2 (12043) - http://www.bohemiancoding.com/sketch -->
    <title>Mute Mic</title>
    <desc>Created with Sketch.</desc>
    <defs></defs>
    <g id="Page-1" stroke="none" stroke-width="1" fill="none" fill-rule="evenodd" sketch:type="MSPage">
        <g id="Help-Copy-4" sketch:type="MSArtboardGroup" transform="translate(-348.000000, -620.000000)">
            <g id="Mute-Mic" sketch:type="MSLayerGroup" transform="translate(350.000000, 621.600000)">
                <circle id="Oval-6" stroke="#FFFFFF" stroke-width="3" opacity="0.5" sketch:type="MSShapeGroup" cx="70" cy="70" r="70"></circle>
                <g id="Imported-Layers" transform="translate(43.000000, 39.000000)" fill="#FFFFFF" sketch:type="MSShapeGroup">
                    <path d="M9.936,37.986625 C9.75278571,36.97525 9.64285714,35.9386875 9.64285714,34.875 L9.64285714,31 C9.64285714,29.9285625 8.78078571,29.0625 7.71428571,29.0625 C6.64778571,29.0625 5.78571429,29.9285625 5.78571429,31 L5.78571429,34.875 C5.78571429,37.076 6.11935714,39.1995 6.73842857,41.1970625 L9.936,37.986625" id="Fill-1"></path>
                    <path d="M46.2857143,29.0625 C45.2192143,29.0625 44.3571429,29.9285625 44.3571429,31 L44.3571429,34.875 C44.3571429,44.4908125 36.5715,52.3125 27,52.3125 C22.8227143,52.3125 18.9867857,50.8225625 15.9897857,48.3445 L13.2608571,51.084125 C16.5066429,53.8644375 20.5875,55.6895625 25.0714286,56.098375 L25.0714286,62 L28.9285714,62 L28.9285714,56.0886875 C39.7247143,55.106375 48.2142857,45.973 48.2142857,34.875 L48.2142857,31 C48.2142857,29.9285625 47.3522143,29.0625 46.2857143,29.0625" id="Fill-2"></path>
                    <path d="M19.2857143,11.625 C19.2857143,7.350875 22.7455714,3.875 27,3.875 C31.2544286,3.875 34.7142857,7.350875 34.7142857,11.625 L34.7142857,13.093625 L38.3592857,9.43175 C37.3332857,4.0668125 32.6333571,0 27,0 C20.6183571,0 15.4285714,5.2138125 15.4285714,11.625 L15.4285714,32.468625 L19.2857143,28.593625 L19.2857143,11.625" id="Fill-3"></path>
                    <path d="M27,42.625 C25.4860714,42.625 24.084,42.1696875 22.8921429,41.4101875 L20.1169286,44.19825 C22.0435714,45.6378125 24.4195714,46.5 27,46.5 C33.3816429,46.5 38.5714286,41.2861875 38.5714286,34.875 L38.5714286,25.656375 L34.7142857,29.531375 L34.7142857,34.875 C34.7142857,39.149125 31.2544286,42.625 27,42.625" id="Fill-4"></path>
                    <path d="M50.9123571,2.7105625 L0.7695,53.0855625 L3.08764286,55.4144375 L53.2285714,5.0394375 L50.9123571,2.7105625" id="Fill-5"></path>
                </g>
            </g>
        </g>
    </g>
</svg>