<svg width="216px" height="217px" viewBox="0 0 216 217" version="1.1" xmlns="http://www.w3.org/2000/svg" xmlns:xlink="http://www.w3.org/1999/xlink" xmlns:sketch="http://www.bohemiancoding.com/sketch/ns">
    <!-- Generator: Sketch 3.3.2 (12043) - http://www.bohemiancoding.com/sketch -->
    <title>ico</title>
    <desc>Created with Sketch.</desc>
    <defs></defs>
    <g id="Page-1" stroke="none" stroke-width="1" fill="none" fill-rule="evenodd" sketch:type="MSPage">
        <g id="Help\-Copy-10" sketch:type="MSArtboardGroup" transform="translate(-432.000000, -604.000000)">
            <g id="ico" sketch:type="MSLayerGroup" transform="translate(432.000000, 604.100000)">
                <circle id="Oval-10" fill="#D3DDE1" sketch:type="MSShapeGroup" cx="108" cy="108" r="108"></circle>
                <path d="M96.5738919,106.740741 C99.1425405,107.176296 101.282108,108.125926 102.995514,109.592593 C104.706,111.059259 105.564162,113.531852 105.564162,117.008889 C105.564162,120.485926 104.360108,123.12 101.952,124.911111 C99.5438919,126.703704 96.678973,127.6 93.3630811,127.6 C89.8311892,127.6 86.886,126.703704 84.5333514,124.911111 C82.1777838,123.12 81,120.485926 81,117.008889 C81,112.01037 81.9895135,107.148148 83.9714595,102.422222 C85.9504865,97.6962963 88.8124865,92.8888889 92.5603784,88 L100.747946,90.6074074 L96.5738919,106.740741 L96.5738919,106.740741 Z M124.829027,106.740741 C127.397676,107.176296 129.537243,108.125926 131.250649,109.592593 C132.961135,111.059259 133.819297,113.531852 133.819297,117.008889 C133.819297,120.485926 132.615243,123.12 130.207135,124.911111 C127.799027,126.703704 124.934108,127.6 121.618216,127.6 C118.086324,127.6 115.141135,126.703704 112.788486,124.911111 C110.434378,123.12 109.256595,120.485926 109.256595,117.008889 C109.256595,112.01037 110.246108,107.148148 112.226595,102.422222 C114.207081,97.6962963 117.067622,92.8888889 120.815514,88 L129.003081,90.6074074 L124.829027,106.740741 L124.829027,106.740741 Z" id="Imported-Layers" fill="#667980" sketch:type="MSShapeGroup"></path>
            </g>
        </g>
    </g>
</svg>