<svg width="30px" height="30px" viewBox="0 0 30 30" version="1.1" xmlns="http://www.w3.org/2000/svg" xmlns:xlink="http://www.w3.org/1999/xlink" xmlns:sketch="http://www.bohemiancoding.com/sketch/ns">
    <!-- Generator: Sketch 3.3.2 (12043) - http://www.bohemiancoding.com/sketch -->
    <title>Imported Layers</title>
    <desc>Created with Sketch.</desc>
    <defs></defs>
    <g id="Page-1" stroke="none" stroke-width="1" fill="none" fill-rule="evenodd" sketch:type="MSPage">
        <g id="Help" sketch:type="MSArtboardGroup" transform="translate(-579.000000, -588.000000)" fill="#24A7B3">
            <path d="M585.385629,588.755 C587.511629,591.12 589.304629,593.704 589.304629,593.704 C589.304629,593.704 590.781629,595.733 589.476629,597.047 C588.614629,597.914 587.439629,599.978 588.047629,600.857 C588.654629,601.737 596.144629,608.955 596.144629,608.955 C596.144629,608.955 597.000629,609.704 597.573629,609.431 C598.145629,609.158 600.907629,607.525 600.907629,607.525 C600.907629,607.525 602.048629,607.14 603.288629,608.002 C604.540629,608.872 608.398629,611.431 608.398629,611.431 C608.398629,611.431 609.496629,612.814 608.726629,614.034 C607.956629,615.254 605.550629,617.668 605.550629,617.668 C605.550629,617.668 604.593629,618.316 602.427629,617.802 C600.261629,617.288 595.198629,616.081 588.258629,609.145 C581.841629,602.73 579.019629,594.097 579.019629,594.097 C579.019629,594.097 578.814629,592.593 579.729629,591.254 C580.644629,589.916 583.349629,586.49 585.385629,588.755" id="Imported-Layers" sketch:type="MSShapeGroup"></path>
        </g>
    </g>
</svg>