<svg width="22px" height="32px" viewBox="0 0 22 32" version="1.1" xmlns="http://www.w3.org/2000/svg" xmlns:xlink="http://www.w3.org/1999/xlink" xmlns:sketch="http://www.bohemiancoding.com/sketch/ns">
    <!-- Generator: Sketch 3.3.2 (12043) - http://www.bohemiancoding.com/sketch -->
    <title>Imported Layers</title>
    <desc>Created with Sketch.</desc>
    <defs></defs>
    <g id="Page-1" stroke="none" stroke-width="1" fill="none" fill-rule="evenodd" sketch:type="MSPage">
        <g id="Offices_6" sketch:type="MSArtboardGroup" transform="translate(-578.000000, -66.000000)" fill="#FFFFFF">
            <path d="M591.868108,81.9221622 C591.530811,82.2594595 591.08973,82.4324324 590.648649,82.4324324 C590.207568,82.4324324 589.766486,82.2594595 589.429189,81.9221622 C588.745946,81.2475676 588.745946,80.1578378 589.429189,79.4832432 L592.99939,76.9871219 L583.043579,76.9871219 C582.092228,76.9871219 582.032471,77.4318592 582.032471,78.3832105 L582.032471,96.2702707 C582.032471,97.221622 580.681081,98 579.72973,98 C578.778378,98 578,97.2216216 578,96.2702703 L578,78.1081081 C578,75.2454054 580.326486,72.9189189 583.189189,72.9189189 L592.99939,72.9189189 L589.429189,69.8140541 C588.745946,69.1394595 588.745946,68.0497297 589.429189,67.3751351 C590.103784,66.6918919 591.193514,66.6918919 591.868108,67.3751351 L599.15027,74.6486486 L591.868108,81.9221622 Z" id="Imported-Layers" sketch:type="MSShapeGroup"></path>
        </g>
    </g>
</svg>