<svg width="36px" height="36px" viewBox="0 0 36 36" version="1.1" xmlns="http://www.w3.org/2000/svg" xmlns:xlink="http://www.w3.org/1999/xlink" xmlns:sketch="http://www.bohemiancoding.com/sketch/ns">
    <!-- Generator: Sketch 3.3.2 (12043) - http://www.bohemiancoding.com/sketch -->
    <title>settings_icon</title>
    <desc>Created with Sketch.</desc>
    <defs></defs>
    <g id="Page-1" stroke="none" stroke-width="1" fill="none" fill-rule="evenodd" sketch:type="MSPage">
        <g id="Menu" sketch:type="MSArtboardGroup" transform="translate(-170.000000, -341.000000)" fill="#FFFFFF">
            <path d="M205.924,357.339 L205.904,357.34 C205.832,356.635 205.272,356.074 204.568,356.004 L203.745,356.004 L203.745,355.995 C202.862,355.995 202.097,355.486 201.73,354.744 C201.642,354.562 201.575,354.367 201.538,354.161 C201.372,353.7 201.184,353.25 200.974,352.811 C200.974,352.81 200.974,352.81 200.973,352.808 C200.868,352.653 200.782,352.484 200.718,352.304 L200.718,352.301 C200.635,352.066 200.59,351.813 200.59,351.551 C200.59,350.931 200.84,350.369 201.248,349.963 L201.245,349.963 L201.703,349.506 C201.709,349.502 201.715,349.497 201.721,349.491 C201.726,349.485 201.732,349.479 201.736,349.472 C202.27,348.922 202.297,348.068 201.822,347.486 L201.831,347.48 C201.48,347.059 201.113,346.657 200.727,346.273 C200.333,345.876 199.921,345.502 199.492,345.145 L199.487,345.149 C198.96,344.718 198.205,344.703 197.66,345.102 L197.331,345.431 L197.023,345.738 L197.009,345.724 C196.354,346.381 195.394,346.547 194.583,346.221 C194.473,346.178 194.367,346.125 194.265,346.062 C193.748,345.812 193.215,345.591 192.666,345.404 C192.568,345.38 192.474,345.348 192.379,345.31 C192.379,345.31 192.378,345.31 192.377,345.306 C192.108,345.2 191.855,345.034 191.636,344.816 C191.27,344.448 191.057,343.987 190.996,343.508 C190.972,343.321 190.972,343.133 190.996,342.946 L190.996,342.56 C190.996,341.823 190.463,341.21 189.762,341.085 C189.675,341.076 189.588,341.07 189.499,341.063 L189.498,341.063 C189.003,341.021 188.504,341 188,341 C187.496,341 186.997,341.021 186.502,341.063 L186.5,341.063 C186.412,341.07 186.325,341.076 186.237,341.085 C185.536,341.21 185.004,341.823 185.004,342.56 L185.004,343.228 C185.004,344.194 184.398,345.017 183.543,345.334 C183.489,345.355 183.433,345.373 183.377,345.389 C182.776,345.593 182.196,345.834 181.636,346.111 C181.633,346.113 181.633,346.114 181.63,346.114 C181.586,346.138 181.542,346.16 181.495,346.181 C181.209,346.312 180.894,346.385 180.56,346.385 C179.94,346.385 179.378,346.132 178.972,345.727 L178.968,345.73 L178.494,345.257 C177.973,344.737 177.167,344.679 176.583,345.084 C176.516,345.139 176.449,345.194 176.385,345.248 C176.382,345.251 176.379,345.255 176.376,345.257 C175.993,345.581 175.626,345.919 175.273,346.273 C174.919,346.624 174.581,346.992 174.259,347.373 C174.259,347.373 174.258,347.373 174.258,347.376 C174.2,347.443 174.142,347.512 174.087,347.58 C173.679,348.165 173.736,348.973 174.258,349.494 L174.73,349.966 C175.41,350.648 175.562,351.656 175.187,352.484 C175.163,352.535 175.138,352.587 175.11,352.636 C174.834,353.194 174.593,353.775 174.392,354.37 C174.374,354.434 174.352,354.495 174.328,354.556 C174.328,354.556 174.328,354.556 174.328,354.559 C174.218,354.843 174.049,355.111 173.819,355.34 C173.38,355.778 172.807,355.998 172.231,355.998 L172.231,356.004 L171.561,356.004 C170.823,356.004 170.21,356.536 170.085,357.237 C170.076,357.323 170.069,357.412 170.061,357.5 C170.021,357.985 170,358.506 170,359 L170,359.012 L170,359.024 C170,359.521 170.021,360.011 170.061,360.496 L170.061,360.499 C170.069,360.586 170.076,360.673 170.085,360.761 C170.21,361.462 170.821,361.996 171.557,361.996 L171.561,361.996 L172.231,361.996 C173.188,361.996 174.003,362.594 174.328,363.437 L174.328,363.44 C174.349,363.497 174.369,363.553 174.382,363.61 C174.386,363.613 174.386,363.616 174.389,363.62 C174.59,364.218 174.832,364.799 175.108,365.36 C175.111,365.363 175.112,365.367 175.114,365.369 C175.138,365.412 175.16,365.458 175.181,365.504 C175.312,365.788 175.385,366.107 175.385,366.439 C175.385,367.059 175.134,367.622 174.727,368.029 L174.73,368.032 L174.273,368.489 C174.267,368.493 174.261,368.499 174.255,368.506 C174.249,368.512 174.242,368.518 174.238,368.524 C173.739,369.039 173.682,369.825 174.07,370.401 C174.136,370.481 174.201,370.56 174.267,370.636 C174.587,371.014 174.922,371.377 175.273,371.727 C175.623,372.078 175.989,372.416 176.367,372.736 C176.443,372.8 176.519,372.864 176.595,372.928 C177.115,373.278 177.805,373.266 178.314,372.894 L178.643,372.565 L178.951,372.257 L178.965,372.269 C179.646,371.59 180.658,371.438 181.487,371.815 C181.53,371.834 181.572,371.855 181.612,371.877 C181.615,371.879 181.619,371.879 181.623,371.883 C182.186,372.163 182.773,372.407 183.377,372.611 C183.428,372.626 183.48,372.644 183.53,372.663 C183.824,372.772 184.102,372.943 184.34,373.181 C184.779,373.62 184.998,374.193 184.998,374.769 L185.004,374.769 L185.004,375.424 C185.004,376.198 185.592,376.838 186.348,376.914 L186.348,376.923 C186.892,376.975 187.442,377 188,377 C188.558,377 189.106,376.975 189.652,376.923 L189.65,376.914 C190.405,376.838 190.996,376.198 190.996,375.424 L190.996,374.757 C190.996,373.854 191.526,373.077 192.291,372.721 C192.447,372.647 192.611,372.593 192.782,372.556 C193.276,372.382 193.754,372.184 194.22,371.959 C194.355,371.87 194.501,371.797 194.653,371.742 C194.897,371.651 195.162,371.599 195.44,371.599 C196.009,371.599 196.531,371.813 196.928,372.166 C196.997,372.224 197.061,372.288 197.122,372.358 L197.504,372.742 L197.506,372.739 C198.033,373.266 198.859,373.318 199.444,372.894 C199.447,372.894 199.449,372.891 199.45,372.888 C199.499,372.849 199.546,372.809 199.594,372.769 C199.987,372.437 200.365,372.09 200.727,371.727 C201.09,371.364 201.437,370.987 201.77,370.593 C201.812,370.541 201.855,370.49 201.898,370.438 C202.309,369.874 202.273,369.088 201.796,368.559 L201.794,368.557 L201.687,368.451 L201.27,368.032 L201.27,368.03 C200.599,367.36 200.441,366.372 200.794,365.552 C200.828,365.476 200.865,365.4 200.907,365.327 C201.172,364.787 201.406,364.227 201.602,363.651 C201.623,363.575 201.648,363.498 201.678,363.425 C201.787,363.145 201.956,362.883 202.181,362.656 C202.619,362.218 203.193,361.999 203.769,361.999 L203.769,361.996 L204.415,361.996 L204.415,361.986 C205.215,361.986 205.87,361.357 205.91,360.566 L205.933,360.569 C205.977,360.051 206,359.527 206,359 C206,358.439 205.974,357.886 205.924,357.339 L205.924,357.339 Z M188,367 C183.582,367 180,363.418 180,359 C180,354.581 183.582,350.999 188,350.999 C192.418,350.999 196,354.581 196,359 C196,363.418 192.418,367 188,367 L188,367 Z" id="settings_icon" sketch:type="MSShapeGroup"></path>
        </g>
    </g>
</svg>