<svg width="30px" height="32px" viewBox="0 0 30 32" version="1.1" xmlns="http://www.w3.org/2000/svg" xmlns:xlink="http://www.w3.org/1999/xlink" xmlns:sketch="http://www.bohemiancoding.com/sketch/ns">
    <title>Imported Layers Copy</title>
    <desc>Created with Sketch.</desc>
    <defs></defs>
    <g id="Page-1" stroke="none" stroke-width="1" fill="none" fill-rule="evenodd" sketch:type="MSPage">
        <g id="Contacts" sketch:type="MSArtboardGroup" transform="translate(-578.000000, -231.000000)" fill="#CCD5D9">
            <path d="M607.304348,258.552727 C608.125217,259.396364 608.125217,260.792727 607.304348,261.636364 C606.90087,262.058182 606.358261,262.276364 605.829565,262.276364 C605.30087,262.276364 604.758261,262.058182 604.354783,261.636364 L592.96,249.723636 L581.565217,261.636364 C581.161739,262.058182 580.61913,262.276364 580.090435,262.276364 C579.561739,262.276364 579.01913,262.058182 578.615652,261.636364 C577.794783,260.792727 577.794783,259.396364 578.615652,258.552727 L590.010435,246.64 L578.615652,234.727273 C577.794783,233.883636 577.794783,232.487273 578.615652,231.643636 C579.436522,230.785455 580.744348,230.785455 581.565217,231.643636 L592.96,243.556364 L604.354783,231.643636 C605.175652,230.785455 606.483478,230.785455 607.304348,231.643636 C608.125217,232.487273 608.125217,233.883636 607.304348,234.727273 L595.909565,246.64 L607.304348,258.552727" id="Imported-Layers-Copy" sketch:type="MSShapeGroup"></path>
        </g>
    </g>
</svg>