<svg width="20px" height="30px" viewBox="0 0 20 30" version="1.1" xmlns="http://www.w3.org/2000/svg" xmlns:xlink="http://www.w3.org/1999/xlink" xmlns:sketch="http://www.bohemiancoding.com/sketch/ns">
    <!-- Generator: Sketch 3.3.2 (12043) - http://www.bohemiancoding.com/sketch -->
    <title>Fill 1</title>
    <desc>Created with Sketch.</desc>
    <defs></defs>
    <g id="Page-1" stroke="none" stroke-width="1" fill="none" fill-rule="evenodd" sketch:type="MSPage">
        <g id="Popover_1_unlock" sketch:type="MSArtboardGroup" transform="translate(-66.000000, -156.625000)" fill="#FFFFFF">
            <g id="Popover" sketch:type="MSLayerGroup" transform="translate(16.000000, 100.000000)">
                <g id="Imported-Layers" transform="translate(50.000000, 56.745000)" sketch:type="MSShapeGroup">
                    <path d="M5.11006257,12.2341261 L5.11006263,8 C5.11006263,5.54363636 7.0987293,3.27758312 9.54339597,3.27758312 C11.9880626,3.27758312 13.8516845,4.80986683 13.8516845,7.26623046 C13.8516845,9.39062011 15.5162964,9.19408691 15.5162964,9.19408691 C15.5162964,9.19408691 16.9726562,9.19408691 16.9726562,7.26623046 C16.9726562,4.01610839 13.7316284,0.28429687 9.54339597,0.28429687 C5.35516355,0.28429687 1.93322751,4.13727261 1.93322751,7.99999988 L1.93322751,12.234126 C0.489135744,12.4926709 0.0433959683,13.6 0.0433959683,15 L0.0433959683,20.1197461 C0.0433959683,24.9902295 4.31839597,29.3089551 9.54339597,29.3089551 C14.768396,29.3089551 19.043396,24.7045455 19.043396,19.4545455 L19.043396,15 C19.043396,13.6 17.9033965,12.2341261 16.5100631,12.2341261 L5.11006257,12.2341261 Z M9.54339597,26.2817334 C5.69906263,26.2817334 3.02319333,23.3172727 3.02319333,19.4545454 L3.02319333,15.2092236 L16.0635986,15.2092236 L16.0635986,19.4545454 C16.0446403,23.3010637 13.3760088,26.2817334 9.54339597,26.2817334 Z" id="Fill-1"></path>
                </g>
            </g>
        </g>
    </g>
</svg>