<svg width="144px" height="144px" viewBox="0 0 144 144" version="1.1" xmlns="http://www.w3.org/2000/svg" xmlns:xlink="http://www.w3.org/1999/xlink" xmlns:sketch="http://www.bohemiancoding.com/sketch/ns">
    <!-- Generator: Sketch 3.3.2 (12043) - http://www.bohemiancoding.com/sketch -->
    <title>Mute - Speaker</title>
    <desc>Created with Sketch.</desc>
    <defs></defs>
    <g id="Page-1" stroke="none" stroke-width="1" fill="none" fill-rule="evenodd" sketch:type="MSPage">
        <g id="Help-Copy-4" sketch:type="MSArtboardGroup" transform="translate(-148.000000, -620.000000)">
            <g id="Mute---Speaker" sketch:type="MSLayerGroup" transform="translate(150.000000, 621.600000)">
                <circle id="Oval-6" stroke="#FFFFFF" stroke-width="3" opacity="0.5" sketch:type="MSShapeGroup" cx="70" cy="70" r="70"></circle>
                <g id="Imported-Layers" transform="translate(39.000000, 40.000000)" fill="#FFFFFF" sketch:type="MSShapeGroup">
                    <path d="M52.4733125,50.9213382 C52.0083125,50.9213382 51.541375,50.7534485 51.169375,50.4118125 C50.3769375,49.6875441 50.32075,48.4517978 51.0415,47.6552978 C55.6081875,42.5971324 58.125,36.0728603 58.125,29.2850404 C58.125,22.4952684 55.6081875,15.9709963 51.0415,10.9147831 C50.32075,10.1163309 50.3769375,8.88253676 51.169375,8.15826838 C51.959875,7.43204779 53.1863125,7.49061397 53.905125,8.28711397 C59.1266875,14.0636912 62,21.5211176 62,29.2850404 C62,37.047011 59.1266875,44.5063897 53.905125,50.2829669 C53.5234375,50.7065956 52.998375,50.9213382 52.4733125,50.9213382" id="Fill-1"></path>
                    <path d="M46.9940625,45.3985478 C46.5368125,45.3985478 46.0815,45.2384669 45.7153125,44.9124485 C44.91125,44.1979412 44.83375,42.9660993 45.539,42.157886 C48.6564375,38.5853493 50.375,34.0132831 50.375,29.2850404 C50.375,24.5567978 48.6564375,19.9847316 45.539,16.4121949 C44.83375,15.6039816 44.91125,14.3701875 45.7153125,13.6576324 C46.5155,12.9489816 47.7419375,13.0251176 48.449125,13.8352831 C52.1885,18.120375 54.25,23.6080257 54.25,29.2850404 C54.25,34.9620551 52.1885,40.4497059 48.449125,44.7347978 C48.0674375,45.1740441 47.53075,45.3985478 46.9940625,45.3985478" id="Fill-2"></path>
                    <path d="M41.5070625,39.8738051 C41.0769375,39.8738051 40.644875,39.7273897 40.2845,39.4326066 C39.4533125,38.7512868 39.33125,37.5233493 40.0074375,36.6878051 C41.7201875,34.5735662 42.625,32.0122721 42.625,29.2850404 C42.625,26.5558566 41.7201875,23.9965147 40.0074375,21.8822757 C39.33125,21.0467316 39.4533125,19.8168419 40.2845,19.1374743 C41.11375,18.45225 42.334375,18.575239 43.008625,19.4146875 C45.26,22.1926765 46.5,25.6988382 46.5,29.2850404 C46.5,32.8712426 45.26,36.3774044 43.008625,39.1534412 C42.6269375,39.6278272 42.0689375,39.8738051 41.5070625,39.8738051" id="Fill-3"></path>
                    <path d="M31,58.5681287 C30.49625,58.5681287 30.00025,58.3690037 29.6301875,57.9961324 L12.760375,40.9982757 L5.8125,40.9982757 C2.607875,40.9982757 0,38.3706066 0,35.1416581 L0,23.4284228 C0,20.1994743 2.607875,17.5718051 5.8125,17.5718051 L12.760375,17.5718051 L29.6301875,0.573948529 C30.1843125,0.0136654412 31.0174375,-0.154224265 31.7420625,0.150319853 C32.4666875,0.450959559 32.9375,1.16546691 32.9375,1.95415809 L32.9375,56.6159228 C32.9375,57.404614 32.4666875,58.1171691 31.7420625,58.419761 C31.5018125,58.5193235 31.2499375,58.5681287 31,58.5681287 L31,58.5681287 Z M5.8125,21.4762169 C4.743,21.4762169 3.875,22.3508051 3.875,23.4284228 L3.875,35.1416581 C3.875,36.2192757 4.743,37.093864 5.8125,37.093864 L13.5625,37.093864 C14.077875,37.093864 14.5680625,37.2988456 14.9323125,37.6658603 L29.0625,51.9032978 L29.0625,6.66678309 L14.9323125,20.9042206 C14.5680625,21.2692831 14.077875,21.4762169 13.5625,21.4762169 L5.8125,21.4762169 L5.8125,21.4762169 Z" id="Fill-4"></path>
                </g>
            </g>
        </g>
    </g>
</svg>