<svg width="54px" height="54px" viewBox="0 0 54 54" version="1.1" xmlns="http://www.w3.org/2000/svg" xmlns:xlink="http://www.w3.org/1999/xlink" xmlns:sketch="http://www.bohemiancoding.com/sketch/ns">
    <!-- Generator: Sketch 3.3.2 (12043) - http://www.bohemiancoding.com/sketch -->
    <title>Imported Layers 2</title>
    <desc>Created with Sketch.</desc>
    <defs></defs>
    <g id="Page-1" stroke="none" stroke-width="1" fill="none" fill-rule="evenodd" sketch:type="MSPage">
        <g id="Menu" sketch:type="MSArtboardGroup" transform="translate(-56.000000, -2628.000000)" fill="#FFFFFF">
            <path d="M106.142857,2651.14286 L86.8571429,2651.14286 L86.8571429,2631.85714 C86.8571429,2629.72607 85.1310714,2628 83,2628 C80.8708571,2628 79.1428571,2629.72607 79.1428571,2631.85714 L79.1428571,2651.14286 L59.8571429,2651.14286 C57.728,2651.14286 56,2652.86893 56,2655 C56,2657.12914 57.728,2658.85714 59.8571429,2658.85714 L79.1428571,2658.85714 L79.1428571,2678.14286 C79.1428571,2680.272 80.8708571,2682 83,2682 C85.1310714,2682 86.8571429,2680.272 86.8571429,2678.14286 L86.8571429,2658.85714 L106.142857,2658.85714 C108.273929,2658.85714 110,2657.12914 110,2655 C110,2652.86893 108.273929,2651.14286 106.142857,2651.14286" id="Imported-Layers-2" sketch:type="MSShapeGroup"></path>
        </g>
    </g>
</svg>