<svg width="153px" height="204px" viewBox="0 0 153 204" version="1.1" xmlns="http://www.w3.org/2000/svg" xmlns:xlink="http://www.w3.org/1999/xlink" xmlns:sketch="http://www.bohemiancoding.com/sketch/ns">
    <!-- Generator: Sketch 3.3.2 (12043) - http://www.bohemiancoding.com/sketch -->
    <title>Imported Layers</title>
    <desc>Created with Sketch.</desc>
    <defs></defs>
    <g id="Page-1" stroke="none" stroke-width="1" fill="none" fill-rule="evenodd" sketch:type="MSPage">
        <g id="Cards-Copy-7" sketch:type="MSArtboardGroup" transform="translate(-3015.000000, -400.000000)" fill="#FFFFFF">
            <g id="Group-Copy-3" sketch:type="MSLayerGroup" transform="translate(2710.000000, 262.000000)">
                <g id="Imported-Layers" transform="translate(305.000000, 138.000000)" sketch:type="MSShapeGroup">
                    <path d="M132.6,71.4 L132.6,56.1 C132.6,25.1685 107.4315,0 76.5,0 C45.5685,0 20.4,25.1685 20.4,56.1 L20.4,71.4 C9.18,71.4 0,80.58 0,91.8 L0,127.5 C0,169.575 34.425,204 76.5,204 C118.575,204 153,169.575 153,127.5 L153,91.8 C153,80.58 143.82,71.4 132.6,71.4 L132.6,71.4 Z M40.8,56.1 C40.8,36.4191 56.8191,20.4 76.5,20.4 C96.1809,20.4 112.2,36.4191 112.2,56.1 L112.2,71.4 L40.8,71.4 L40.8,56.1 L40.8,56.1 Z M132.6,127.5 C132.6,158.4315 107.4315,183.6 76.5,183.6 C45.5685,183.6 20.4,158.4315 20.4,127.5 L20.4,91.8 L132.6,91.8 L132.6,127.5 L132.6,127.5 Z" id="Fill-1"></path>
                    <path d="M66.3,138.8271 L66.3,147.9 C66.3,153.51 70.89,158.1 76.5,158.1 C82.11,158.1 86.7,153.51 86.7,147.9 L86.7,138.8271 C89.811,136.0272 91.8,132.0135 91.8,127.5 C91.8,119.0493 84.9507,112.2 76.5,112.2 C68.0493,112.2 61.2,119.0493 61.2,127.5 C61.2,132.0135 63.189,136.0272 66.3,138.8271" id="Fill-2"></path>
                </g>
            </g>
        </g>
    </g>
</svg>