<svg width="72px" height="72px" viewBox="0 0 72 72" version="1.1" xmlns="http://www.w3.org/2000/svg" xmlns:xlink="http://www.w3.org/1999/xlink" xmlns:sketch="http://www.bohemiancoding.com/sketch/ns">
    <!-- Generator: Sketch 3.3.2 (12043) - http://www.bohemiancoding.com/sketch -->
    <title>Fill 1 + Fill 2</title>
    <desc>Created with Sketch.</desc>
    <defs></defs>
    <g id="Page-1" stroke="none" stroke-width="1" fill="none" fill-rule="evenodd" sketch:type="MSPage">
        <g id="Main" sketch:type="MSArtboardGroup" transform="translate(-138.000000, -417.000000)" fill="#667980">
            <g id="Oval-13-+-Fill-1-+-Fill-2" sketch:type="MSLayerGroup" transform="translate(72.000000, 351.000000)">
                <g id="Fill-1-+-Fill-2" transform="translate(66.000000, 66.000000)" sketch:type="MSShapeGroup">
                    <path d="M58.5,4.5 L54,4.5 C54,2.025 51.975,0 49.5,0 C47.025,0 45,2.025 45,4.5 L27,4.5 C27,2.025 24.975,0 22.5,0 C20.025,0 18,2.025 18,4.5 L13.5,4.5 C6.075,4.5 0,10.575 0,18 L0,58.5 C0,65.925 6.075,72 13.5,72 L58.5,72 C65.925,72 72,65.925 72,58.5 L72,18 C72,10.575 65.925,4.5 58.5,4.5 L58.5,4.5 Z M63,58.5 C63,60.939 60.939,63 58.5,63 L13.5,63 C11.061,63 9,60.939 9,58.5 L9,18 C9,15.561 11.061,13.5 13.5,13.5 L18,13.5 C18,15.975 20.025,18 22.5,18 C24.975,18 27,15.975 27,13.5 L45,13.5 C45,15.975 47.025,18 49.5,18 C51.975,18 54,15.975 54,13.5 L58.5,13.5 C60.939,13.5 63,15.561 63,18 L63,58.5 L63,58.5 Z" id="Fill-1"></path>
                    <path d="M34.5015,53.613 L19.68975,41.76225 L25.31025,34.73775 L32.9985,40.887 L45.94725,24.237 L53.05275,29.763 L34.5015,53.613" id="Fill-2"></path>
                </g>
            </g>
        </g>
    </g>
</svg>