<svg width="55px" height="48px" viewBox="0 0 55 48" version="1.1" xmlns="http://www.w3.org/2000/svg" xmlns:xlink="http://www.w3.org/1999/xlink" xmlns:sketch="http://www.bohemiancoding.com/sketch/ns">
    <!-- Generator: Sketch 3.3.2 (12043) - http://www.bohemiancoding.com/sketch -->
    <title>Imported Layers</title>
    <desc>Created with Sketch.</desc>
    <defs></defs>
    <g id="Page-1" stroke="none" stroke-width="1" fill="none" fill-rule="evenodd" sketch:type="MSPage">
        <g id="Help\-Copy-2" sketch:type="MSArtboardGroup" transform="translate(-48.000000, -2245.000000)" fill="#667980">
            <g id="Imported-Layers" sketch:type="MSLayerGroup" transform="translate(48.850000, 2245.000000)">
                <path d="M27,18.1333333 C31.7709,18.1333333 35.64,21.9546667 35.64,26.6666667 C35.64,31.3786667 31.7709,35.2 27,35.2 C22.2291,35.2 18.36,31.3786667 18.36,26.6666667 C18.36,21.9546667 22.2291,18.1333333 27,18.1333333" id="Fill-1" sketch:type="MSShapeGroup"></path>
                <path d="M18.9,0 L13.959,5.33333333 L5.4,5.33333333 C2.43,5.33333333 0,7.73333333 0,10.6666667 L0,42.6666667 C0,45.6 2.43,48 5.4,48 L48.6,48 C51.57,48 54,45.6 54,42.6666667 L54,10.6666667 C54,7.73333333 51.57,5.33333333 48.6,5.33333333 L40.041,5.33333333 L35.1,0 L18.9,0 L18.9,0 Z M27,40 C19.548,40 13.5,34.0266667 13.5,26.6666667 C13.5,19.3066667 19.548,13.3333333 27,13.3333333 C34.452,13.3333333 40.5,19.3066667 40.5,26.6666667 C40.5,34.0266667 34.452,40 27,40 L27,40 Z" id="Fill-2" sketch:type="MSShapeGroup"></path>
            </g>
        </g>
    </g>
</svg>