<svg width="54px" height="44px" viewBox="0 0 54 44" version="1.1" xmlns="http://www.w3.org/2000/svg" xmlns:xlink="http://www.w3.org/1999/xlink" xmlns:sketch="http://www.bohemiancoding.com/sketch/ns">
    <!-- Generator: Sketch 3.3.2 (12043) - http://www.bohemiancoding.com/sketch -->
    <title>value_courses</title>
    <desc>Created with Sketch.</desc>
    <defs></defs>
    <g id="Page-1" stroke="none" stroke-width="1" fill="none" fill-rule="evenodd" sketch:type="MSPage">
        <g id="Menu" sketch:type="MSArtboardGroup" transform="translate(-57.000000, -2176.000000)" fill="#24A7B3">
            <g id="Icons" sketch:type="MSLayerGroup" transform="translate(-1.000000, 517.000000)">
                <g id="value_courses" transform="translate(58.000000, 1659.000000)" sketch:type="MSShapeGroup">
                    <path d="M45.6254027,12.5198358 L37.573861,22 L42.9375297,22 C42.9375297,23.5263064 42.72148,25.1040766 42.2383875,26.7170588 C40.4992545,32.517565 35.5985495,36.9732421 29.6806664,38.0038714 C24.1546249,38.9654309 19.0351864,37.055855 15.5126369,33.5211081 C14.456543,32.4620383 12.7603516,32.4444323 11.7082835,33.507565 C10.6790281,34.5463201 10.6253511,36.2513953 11.6519227,37.2915048 C15.984994,41.6808208 22.1591845,44.2133789 28.9184538,43.5700821 C38.8231919,42.6261286 46.9123074,34.6627907 48.1428514,24.6991382 C48.2555729,23.7863338 48.2931468,22.8884268 48.2931468,22 L53.6769443,22 L45.6254027,12.5198358" id="Fill-1"></path>
                    <path d="M10.7447823,22 C10.7447823,20.3152394 11.0131671,18.5641176 11.6586323,16.7588235 C13.8486516,10.6346375 19.4297119,6.16 25.8696033,5.77673051 C30.3999374,5.50722298 34.5558748,7.14322845 37.6342476,9.95883721 C38.6769222,10.9122709 40.2885725,10.8337209 41.2842798,9.82882353 C42.3886829,8.71422709 42.3027998,6.90622435 41.1380101,5.85392613 C37.0223304,2.13363885 31.4815278,-0.0129411765 25.436162,0.375745554 C14.9275582,1.05154583 6.29093787,9.60942544 5.44015831,20.2014774 C5.39184906,20.8068536 5.3770879,21.4054583 5.3770879,22 L0,22 L6.97531891,30.2125308 C7.0142347,30.310041 7.04912471,30.4102599 7.08938242,30.5077702 L7.16318822,30.4332832 L8.05154165,31.4801642 L16.1030833,22 L10.7447823,22" id="Fill-2"></path>
                    <path d="M28.2609112,32.8344733 L28.2609112,30.6039261 C30.8172757,29.9132285 32.9576438,27.3820246 32.9576438,24.7086183 C32.9576438,22.3480575 30.4750851,21.3445144 27.8462568,20.2813817 C26.9565614,19.9224897 25.5488836,19.3523256 24.9597791,18.9351984 C25.2227961,18.0196854 26.419792,17.2599179 26.9189876,17.2599179 C27.7603737,17.2599179 28.8003645,17.7569494 29.0097046,18.4950479 L32.8811542,17.3790971 C32.2477662,15.1390698 30.2603774,13.7874692 28.2609112,13.3595075 L28.2609112,11.1655267 L25.577064,11.1655267 L25.577064,13.4041997 C23.2112526,14.0921888 20.8803313,16.4568126 20.8803313,19.2913817 C20.8803313,21.8429001 23.6607971,22.9656224 26.34867,24.0531327 C27.0947796,24.3537893 28.24615,24.8196717 28.8392803,25.1731464 C28.5494248,25.9437483 27.6382586,26.7400821 26.9189876,26.7400821 C25.7770106,26.7400821 23.9828587,25.6430917 22.9750741,24.6260055 L20.1288541,27.4984952 C21.1473741,28.5277702 23.2796908,30.1366895 25.577064,30.6364295 L25.577064,32.8344733 L28.2609112,32.8344733" id="Fill-3"></path>
                </g>
            </g>
        </g>
    </g>
</svg>