<svg width="53px" height="53px" viewBox="0 0 53 53" version="1.1" xmlns="http://www.w3.org/2000/svg" xmlns:xlink="http://www.w3.org/1999/xlink" xmlns:sketch="http://www.bohemiancoding.com/sketch/ns">
    <!-- Generator: Sketch 3.3.2 (12043) - http://www.bohemiancoding.com/sketch -->
    <title>help_icon</title>
    <desc>Created with Sketch.</desc>
    <defs></defs>
    <g id="Page-1" stroke="none" stroke-width="1" fill="none" fill-rule="evenodd" sketch:type="MSPage">
        <g id="Menu" sketch:type="MSArtboardGroup" transform="translate(-57.000000, -1979.000000)" fill="#667980">
            <g id="Icons" sketch:type="MSLayerGroup" transform="translate(-1.000000, 517.000000)">
                <path d="M110.280182,1480 C110.280182,1470.05909 102.234182,1462 92.308,1462 C82.9087273,1462 75.2063636,1469.23273 74.416,1478.44218 C65.2196364,1479.23255 58,1486.948 58,1496.36364 C58,1501.47564 60.1370909,1506.08036 63.5538182,1509.35636 L58,1514.36364 L74.3374545,1514.36364 L74.3374545,1514.28018 C74.8758182,1514.32927 75.4190909,1514.36364 75.9705455,1514.36364 C85.3452727,1514.36364 93.0329091,1507.17345 93.8609091,1498 L110.280182,1498 L104.724727,1492.99273 C108.143091,1489.71673 110.280182,1485.112 110.280182,1480 L110.280182,1480 Z M75.9705455,1507.81818 C69.6558182,1507.81818 64.5356364,1502.68982 64.5356364,1496.36364 C64.5356364,1490.03745 69.6558182,1484.90909 75.9705455,1484.90909 C82.2869091,1484.90909 87.4070909,1490.03745 87.4070909,1496.36364 C87.4070909,1502.68982 82.2869091,1507.81818 75.9705455,1507.81818 L75.9705455,1507.81818 Z M93.2358182,1491.40709 C91.5356364,1485.45564 86.8621818,1480.774 80.9189091,1479.07055 C81.3934545,1473.17964 86.3058182,1468.54545 92.308,1468.54545 C98.6243636,1468.54545 103.744545,1473.67382 103.744545,1480 C103.744545,1486.012 99.1169091,1490.93418 93.2358182,1491.40709 L93.2358182,1491.40709 Z" id="help_icon" sketch:type="MSShapeGroup"></path>
            </g>
        </g>
    </g>
</svg>