<svg width="54px" height="47px" viewBox="0 0 54 47" version="1.1" xmlns="http://www.w3.org/2000/svg" xmlns:xlink="http://www.w3.org/1999/xlink" xmlns:sketch="http://www.bohemiancoding.com/sketch/ns">
    <!-- Generator: Sketch 3.3.2 (12043) - http://www.bohemiancoding.com/sketch -->
    <title>Imported Layers</title>
    <desc>Created with Sketch.</desc>
    <defs></defs>
    <g id="Page-1" stroke="none" stroke-width="1" fill="none" fill-rule="evenodd" sketch:type="MSPage">
        <g id="Menu" sketch:type="MSArtboardGroup" transform="translate(-57.000000, -590.000000)" fill="#667980">
            <g id="Icons" sketch:type="MSLayerGroup" transform="translate(-1.000000, 517.000000)">
                <path d="M106.6,119.430578 L93.1,119.430578 C90.1219,119.430578 87.7,116.973085 87.7,113.951623 L87.7,102.993712 L82.3,102.993712 L82.3,113.951623 C82.3,116.973085 79.8781,119.430578 76.9,119.430578 L63.4,119.430578 C60.4219,119.430578 58,116.973085 58,113.951623 L58,93.5015778 C58,91.6652695 58.8991,89.9610991 60.40435,88.943501 L82.00435,74.333407 C83.7877,73.1291811 86.21365,73.1305433 87.9943,74.3320448 L109.59565,88.943501 C111.1009,89.9610991 112,91.6652695 112,93.5015778 L112,113.951623 C112,116.973085 109.5781,119.430578 106.6,119.430578 L106.6,119.430578 Z M82.3,97.5147561 L87.7,97.5147561 C90.6781,97.5147561 93.1,99.9722488 93.1,102.993712 L93.1,113.951623 L106.60405,113.951623 L106.6,93.5015778 L85,78.8914839 L63.4,93.5015778 L63.4,113.951623 L76.9,113.951623 L76.9,102.993712 C76.9,99.9722488 79.3219,97.5147561 82.3,97.5147561 L82.3,97.5147561 Z" id="Imported-Layers" sketch:type="MSShapeGroup"></path>
            </g>
        </g>
    </g>
</svg>