<svg width="41px" height="54px" viewBox="0 0 41 54" version="1.1" xmlns="http://www.w3.org/2000/svg" xmlns:xlink="http://www.w3.org/1999/xlink" xmlns:sketch="http://www.bohemiancoding.com/sketch/ns">
    <!-- Generator: Sketch 3.3.2 (12043) - http://www.bohemiancoding.com/sketch -->
    <title>ideas_icon</title>
    <desc>Created with Sketch.</desc>
    <defs></defs>
    <g id="Page-1" stroke="none" stroke-width="1" fill="none" fill-rule="evenodd" sketch:type="MSPage">
        <g id="Menu" sketch:type="MSArtboardGroup" transform="translate(-63.000000, -2315.000000)" fill="#24A7B3">
            <g id="Icons" sketch:type="MSLayerGroup" transform="translate(-1.000000, 517.000000)">
                <path d="M105,1818.25 C105,1807.06694 95.821125,1798 84.5,1798 C73.178875,1798 64,1807.06694 64,1818.25 C64,1824.30644 66.706,1829.72669 70.9717083,1833.4375 L70.8333333,1833.4375 C74.25,1836.91712 74.25,1838.57087 74.25,1841.875 C74.25,1845.02219 76.4452083,1847.64794 79.3989167,1848.39381 C79.3937917,1848.47144 79.375,1848.54569 79.375,1848.625 C79.375,1850.48125 80.9125,1852 82.7916667,1852 L86.2083333,1852 C88.0875,1852 89.625,1850.48125 89.625,1848.625 C89.625,1848.54569 89.6062083,1848.46975 89.6010833,1848.39044 C92.5547917,1847.6395 94.7517083,1844.99013 94.75,1841.84125 C94.7482917,1838.34812 94.396375,1836.69606 98.1666667,1833.4375 L98.0282917,1833.4375 C102.294,1829.72669 105,1824.30644 105,1818.25 L105,1818.25 Z M93.5131667,1828.37162 C91.813375,1829.84819 90.5304167,1832.61231 89.625,1835.25831 L87.9166667,1835.23637 L87.9166667,1823.3125 L84.5,1826.6875 L81.0833333,1823.3125 L81.0833333,1835.14694 L79.375,1835.125 C78.4695833,1832.51106 77.186625,1830.03212 75.4885417,1828.37162 C72.686875,1825.63281 70.8333333,1822.10931 70.8333333,1818.25 C70.8333333,1810.80644 76.9645417,1804.75 84.5,1804.75 C92.0354583,1804.75 98.1666667,1810.80644 98.1666667,1818.25 C98.1666667,1822.10931 96.472,1825.79987 93.5131667,1828.37162 L93.5131667,1828.37162 Z" id="ideas_icon" sketch:type="MSShapeGroup"></path>
            </g>
        </g>
    </g>
</svg>