<svg width="20px" height="56px" viewBox="0 0 20 56" version="1.1" xmlns="http://www.w3.org/2000/svg" xmlns:xlink="http://www.w3.org/1999/xlink" xmlns:sketch="http://www.bohemiancoding.com/sketch/ns">
    <!-- Generator: Sketch 3.3.2 (12043) - http://www.bohemiancoding.com/sketch -->
    <title>Fill 1 + Fill 2 + Fill 3</title>
    <desc>Created with Sketch.</desc>
    <defs></defs>
    <g id="Page-1" stroke="none" stroke-width="1" fill="none" fill-rule="evenodd" sketch:type="MSPage">
        <g id="Mobile-Portrait-Copy-25" sketch:type="MSArtboardGroup" transform="translate(-1843.000000, -441.000000)" fill="#363D40">
            <g id="Card_bank-" sketch:type="MSLayerGroup" transform="translate(-2.000000, 239.000000)">
                <g id="Card-sber" transform="translate(2.000000, 144.000000)" sketch:type="MSShapeGroup">
                    <g id="Bitmap-Copy">
                        <g id="Fill-1-+-Fill-2-+-Fill-3" transform="translate(1847.000000, 60.000000)">
                            <path d="M6,0 C9.314,0 12,2.686 12,6 C12,9.314 9.314,12 6,12 C2.686,12 0,9.314 0,6 C0,2.686 2.686,0 6,0" id="Fill-1"></path>
                            <path d="M6,18 C9.314,18 12,20.686 12,24 C12,27.314 9.314,30 6,30 C2.686,30 0,27.314 0,24 C0,20.686 2.686,18 6,18" id="Fill-2"></path>
                            <path d="M6,36 C9.314,36 12,38.686 12,42 C12,45.314 9.314,48 6,48 C2.686,48 0,45.314 0,42 C0,38.686 2.686,36 6,36" id="Fill-3"></path>
                        </g>
                    </g>
                </g>
            </g>
        </g>
    </g>
</svg>