<svg width="54px" height="48px" viewBox="0 0 54 48" version="1.1" xmlns="http://www.w3.org/2000/svg" xmlns:xlink="http://www.w3.org/1999/xlink" xmlns:sketch="http://www.bohemiancoding.com/sketch/ns">
    <!-- Generator: Sketch 3.3.2 (12043) - http://www.bohemiancoding.com/sketch -->
    <title>news_icon</title>
    <desc>Created with Sketch.</desc>
    <defs></defs>
    <g id="Page-1" stroke="none" stroke-width="1" fill="none" fill-rule="evenodd" sketch:type="MSPage">
        <g id="Menu" sketch:type="MSArtboardGroup" transform="translate(-57.000000, -1694.000000)" fill="#24A7B3">
            <g id="Icons" sketch:type="MSLayerGroup" transform="translate(-1.000000, 517.000000)">
                <g id="news_icon" transform="translate(58.000000, 1177.000000)" sketch:type="MSShapeGroup">
                    <path d="M47.25,5.14285714 L40.4071875,5.14285714 C40.4071875,5.14285714 40.4071875,0 33.777,0 L6.75,0 C3.0223125,0 0,3.07028571 0,6.85714286 L0,41.1428571 C0,44.9297143 3.0223125,48 6.75,48 L47.2651875,48 C50.9844375,48 54,44.9365714 54,41.1582857 L54,12 C54,8.21314286 50.9776875,5.14285714 47.25,5.14285714 L47.25,5.14285714 Z M33.777,37.7142857 C33.777,39.6085714 32.2666875,41.1428571 30.402,41.1428571 L10.101375,41.1428571 C8.24175,41.1428571 6.7348125,39.612 6.7348125,37.7228571 L6.7348125,10.2857143 C6.7348125,8.39142857 8.245125,6.85714286 10.1098125,6.85714286 L30.4104375,6.85714286 C32.2700625,6.85714286 33.777,8.388 33.777,10.2788571 L33.777,37.7142857 L33.777,37.7142857 Z M47.25,34.2857143 L47.25,37.7485714 C47.25,39.624 45.6485625,41.1428571 43.8075,41.1428571 L43.74,41.1428571 C41.8989375,41.1428571 40.4071875,39.624 40.4071875,37.7485714 L40.4071875,13.7142857 C40.4071875,12.768 41.1598125,12 42.089625,12 L45.58275,12 C46.510875,12 47.25,12.768 47.25,13.7142857 L47.25,34.2857143 L47.25,34.2857143 Z" id="Fill-1"></path>
                    <path d="M11.7855,17.1428571 L16.8361875,17.1428571 C17.766,17.1428571 18.5203125,16.3748571 18.5203125,15.4285714 L18.5203125,12 C18.5203125,11.0537143 17.766,10.2857143 16.8361875,10.2857143 L11.7855,10.2857143 C10.8556875,10.2857143 10.101375,11.0537143 10.101375,12 L10.101375,15.4285714 C10.101375,16.3748571 10.8556875,17.1428571 11.7855,17.1428571" id="Fill-2"></path>
                    <path d="M28.6216875,10.2857143 L23.571,10.2857143 C22.6411875,10.2857143 21.886875,11.0537143 21.886875,12 L21.886875,15.4285714 C21.886875,16.3748571 22.6411875,17.1428571 23.571,17.1428571 L28.6216875,17.1428571 C29.5515,17.1428571 30.3058125,16.3748571 30.3058125,15.4285714 L30.3058125,12 C30.3058125,11.0537143 29.5515,10.2857143 28.6216875,10.2857143" id="Fill-3"></path>
                    <path d="M28.6216875,20.5714286 L11.7855,20.5714286 C10.8556875,20.5714286 10.101375,21.3394286 10.101375,22.2857143 L10.101375,25.7142857 C10.101375,26.6605714 10.8556875,27.4285714 11.7855,27.4285714 L28.6216875,27.4285714 C29.5515,27.4285714 30.3058125,26.6605714 30.3058125,25.7142857 L30.3058125,22.2857143 C30.3058125,21.3394286 29.5515,20.5714286 28.6216875,20.5714286" id="Fill-4"></path>
                    <path d="M28.6216875,30.8571429 L11.7855,30.8571429 C10.8556875,30.8571429 10.101375,31.6251429 10.101375,32.5714286 L10.101375,36 C10.101375,36.9462857 10.8556875,37.7142857 11.7855,37.7142857 L28.6216875,37.7142857 C29.5515,37.7142857 30.3058125,36.9462857 30.3058125,36 L30.3058125,32.5714286 C30.3058125,31.6251429 29.5515,30.8571429 28.6216875,30.8571429" id="Fill-5"></path>
                </g>
            </g>
        </g>
    </g>
</svg>