<svg width="71px" height="64px" viewBox="0 0 71 64" version="1.1" xmlns="http://www.w3.org/2000/svg" xmlns:xlink="http://www.w3.org/1999/xlink" xmlns:sketch="http://www.bohemiancoding.com/sketch/ns">
    <!-- Generator: Sketch 3.3.2 (12043) - http://www.bohemiancoding.com/sketch -->
    <title>news_icon</title>
    <desc>Created with Sketch.</desc>
    <defs></defs>
    <g id="Page-1" stroke="none" stroke-width="1" fill="none" fill-rule="evenodd" sketch:type="MSPage">
        <g id="Main" sketch:type="MSArtboardGroup" transform="translate(-870.000000, -423.000000)" fill="#667980">
            <g id="Oval-13-+-news_icon" sketch:type="MSLayerGroup" transform="translate(804.000000, 352.000000)">
                <g id="news_icon" transform="translate(66.000000, 71.800000)" sketch:type="MSShapeGroup">
                    <path d="M61.8545455,6.75 L52.8966818,6.75 C52.8966818,6.75 52.8966818,0 44.2171636,0 L8.83636364,0 C3.95648182,0 0,4.02975 0,9 L0,54 C0,58.97025 3.95648182,63 8.83636364,63 L61.8744273,63 C66.7432636,63 70.6909091,58.97925 70.6909091,54.02025 L70.6909091,15.75 C70.6909091,10.77975 66.7344273,6.75 61.8545455,6.75 L61.8545455,6.75 Z M44.2171636,49.5 C44.2171636,51.98625 42.2400273,54 39.7989818,54 L13.2236182,54 C10.7892,54 8.81648182,51.99075 8.81648182,49.51125 L8.81648182,13.5 C8.81648182,11.01375 10.7936182,9 13.2346636,9 L39.8100273,9 C42.2444455,9 44.2171636,11.00925 44.2171636,13.491 L44.2171636,49.5 L44.2171636,49.5 Z M61.8545455,45 L61.8545455,49.545 C61.8545455,52.0065 59.7581182,54 57.348,54 L57.2596364,54 C54.8495182,54 52.8966818,52.0065 52.8966818,49.545 L52.8966818,18 C52.8966818,16.758 53.8819364,15.75 55.0991455,15.75 L59.6719636,15.75 C60.8869636,15.75 61.8545455,16.758 61.8545455,18 L61.8545455,45 L61.8545455,45 Z" id="Fill-1"></path>
                    <path d="M15.4282909,22.5 L22.0401,22.5 C23.2573091,22.5 24.2447727,21.492 24.2447727,20.25 L24.2447727,15.75 C24.2447727,14.508 23.2573091,13.5 22.0401,13.5 L15.4282909,13.5 C14.2110818,13.5 13.2236182,14.508 13.2236182,15.75 L13.2236182,20.25 C13.2236182,21.492 14.2110818,22.5 15.4282909,22.5" id="Fill-2"></path>
                    <path d="M37.4683909,13.5 L30.8565818,13.5 C29.6393727,13.5 28.6519091,14.508 28.6519091,15.75 L28.6519091,20.25 C28.6519091,21.492 29.6393727,22.5 30.8565818,22.5 L37.4683909,22.5 C38.6856,22.5 39.6730636,21.492 39.6730636,20.25 L39.6730636,15.75 C39.6730636,14.508 38.6856,13.5 37.4683909,13.5" id="Fill-3"></path>
                    <path d="M37.4683909,27 L15.4282909,27 C14.2110818,27 13.2236182,28.008 13.2236182,29.25 L13.2236182,33.75 C13.2236182,34.992 14.2110818,36 15.4282909,36 L37.4683909,36 C38.6856,36 39.6730636,34.992 39.6730636,33.75 L39.6730636,29.25 C39.6730636,28.008 38.6856,27 37.4683909,27" id="Fill-4"></path>
                    <path d="M15.428291,40.0546875 C14.2110819,40.0546875 13.2236182,41.508 13.2236182,42.75 L13.2236182,47.25 C13.2236182,48.492 14.2110819,48.9210205 15.428291,48.9210205 L37.3248297,49.0482178 C38.5063811,49.0067422 39.6730636,48.4656807 39.6730636,47.25 L39.6730636,42.75 C39.6730636,41.508 38.8712625,40.0546875 37.6540534,40.0546875 L15.428291,40.0546875 Z" id="Fill-5"></path>
                </g>
            </g>
        </g>
    </g>
</svg>