<svg width="54px" height="53px" viewBox="0 0 54 53" version="1.1" xmlns="http://www.w3.org/2000/svg" xmlns:xlink="http://www.w3.org/1999/xlink" xmlns:sketch="http://www.bohemiancoding.com/sketch/ns">
    <!-- Generator: Sketch 3.3.2 (12043) - http://www.bohemiancoding.com/sketch -->
    <title>Imported Layers Copy 2</title>
    <desc>Created with Sketch.</desc>
    <defs></defs>
    <g id="Page-1" stroke="none" stroke-width="1" fill="none" fill-rule="evenodd" sketch:type="MSPage">
        <g id="Calendar-Copy-8" sketch:type="MSArtboardGroup" transform="translate(-969.000000, -132.000000)" fill="#FFFFFF">
            <g id="Head" sketch:type="MSLayerGroup">
                <g id="Imported-Layers-Copy-2" transform="translate(969.000000, 132.000000)" sketch:type="MSShapeGroup">
                    <path d="M4.20938271,44.3058638 C2.55427435,44.3058638 0.908742804,45.5399164 0.908742804,47.2234458 C0.908742804,48.9069752 2.19357585,50.1155606 3.84868421,50.1155606 L25.5708522,50.1155606 L25.5708522,53 L31.2716,52.9999997 L31.2716,41.4468916 L25.5708522,41.4468916 L25.5708522,44.3058638 L4.20938271,44.3058638 Z" id="Fill-1"></path>
                    <path d="M28.4086786,24.0783225 L28.3487742,29.8630227 L49.095976,29.8630227 C50.7510843,29.8630227 52.1052632,28.6653476 52.1052632,26.9818182 C52.1052632,25.2982888 50.7510843,24.0783225 49.095976,24.0783225 L28.4086786,24.0783225 Z" id="Fill-2"></path>
                    <path d="M15.1393336,29.8854903 L15.1393336,32.774929 L20.8548263,32.774929 L20.8548263,21.1887074 L15.1393336,21.1887074 L15.1393336,24.1036721 L3.00928786,24.1036721 C1.3541795,24.1036721 0,25.304288 0,26.9878174 C0,28.6713468 1.3541795,29.8854903 3.00928786,29.8854903 L15.1393336,29.8854903 Z" id="Fill-3"></path>
                    <path d="M50.2060161,3.84707586 L37.8587711,3.84707586 L37.8587711,9.62160089 L50.2060161,9.62160089 C51.8611245,9.62160089 53.0745464,8.42069094 53.0745464,6.73716153 C53.0745464,5.05363212 51.8611245,3.84707586 50.2060161,3.84707586 Z" id="Fill-4"></path>
                    <path d="M25.5659951,9.65112631 L25.5659949,12.5265665 L31.2578382,12.5265669 L31.2578382,0.963636296 L25.5659951,0.963636296 L25.5659951,3.85501591 L3.95665628,3.85501591 C2.30154792,3.85501591 0.909725792,5.14291428 0.909725792,6.82644369 C0.909725792,8.5099731 2.3876291,9.65112631 4.04273746,9.65112631 L25.5659951,9.65112631 Z" id="Fill-5"></path>
                    <path d="M36.940661,44.3263317 L36.940661,50.1394398 L49.1412675,50.1394398 C50.825645,50.1394398 52.1132427,48.9164152 52.1132427,47.2328857 C52.1132427,45.5493563 50.6617168,44.3263317 49.0066084,44.3263317 L36.940661,44.3263317 Z" id="Fill-6"></path>
                </g>
            </g>
        </g>
    </g>
</svg>