<svg width="48px" height="48px" viewBox="0 0 48 48" version="1.1" xmlns="http://www.w3.org/2000/svg" xmlns:xlink="http://www.w3.org/1999/xlink" xmlns:sketch="http://www.bohemiancoding.com/sketch/ns">
    <!-- Generator: Sketch 3.3.2 (12043) - http://www.bohemiancoding.com/sketch -->
    <title>Imported Layers 3</title>
    <desc>Created with Sketch.</desc>
    <defs></defs>
    <g id="Page-1" stroke="none" stroke-width="1" fill="none" fill-rule="evenodd" sketch:type="MSPage">
        <g id="Mobile-Portrait-Copy-18" sketch:type="MSArtboardGroup" transform="translate(-48.000000, -934.000000)" fill="#2DC85B">
            <g id="Card_bank-" sketch:type="MSLayerGroup" transform="translate(-2.000000, 239.000000)">
                <g id="Card-sber" transform="translate(2.000000, 576.000000)" sketch:type="MSShapeGroup">
                    <path d="M72,119 C58.7454545,119 48,129.745455 48,143 C48,156.254545 58.7454545,167 72,167 C85.2545455,167 96,156.254545 96,143 C96,129.745455 85.2545455,119 72,119 L72,119 Z M72,162.636364 C61.1563636,162.636364 52.3636364,153.843636 52.3636364,143 C52.3636364,132.156364 61.1563636,123.363636 72,123.363636 C82.8436364,123.363636 91.6363636,132.156364 91.6363636,143 C91.6363636,153.843636 82.8436364,162.636364 72,162.636364 L72,162.636364 Z M77.7970909,137.091636 L70.0821818,144.806545 L66.9970909,141.721455 C66.144,140.868364 64.7650909,140.868364 63.912,141.721455 C63.0589091,142.572364 63.0589091,143.955636 63.912,144.808727 L68.5396364,149.434182 C69.3905455,150.285091 70.7738182,150.285091 71.6247273,149.434182 L80.8821818,140.178909 C81.7330909,139.325818 81.7352727,137.944727 80.8821818,137.091636 C80.0312727,136.240727 78.648,136.240727 77.7970909,137.091636 L77.7970909,137.091636 Z" id="Imported-Layers-3"></path>
                </g>
            </g>
        </g>
    </g>
</svg>