<svg width="57px" height="43px" viewBox="0 0 57 43" version="1.1" xmlns="http://www.w3.org/2000/svg" xmlns:xlink="http://www.w3.org/1999/xlink" xmlns:sketch="http://www.bohemiancoding.com/sketch/ns">
    <!-- Generator: Sketch 3.3.2 (12043) - http://www.bohemiancoding.com/sketch -->
    <title>Imported Layers 5</title>
    <desc>Created with Sketch.</desc>
    <defs></defs>
    <g id="Page-1" stroke="none" stroke-width="1" fill="none" fill-rule="evenodd" sketch:type="MSPage">
        <g id="Translate" sketch:type="MSArtboardGroup" transform="translate(-968.000000, -134.000000)" fill="#FFFFFF">
            <path d="M990.252332,181.67996 C989.853786,182.490511 989.033251,183 988.130662,183 C988.048609,183 987.954833,183 987.861058,182.988421 C986.876416,182.872628 986.05588,182.154711 985.844886,181.18205 L978.794783,169.533691 L991.613065,150.556711 L971.426307,163.798443 L961.709429,156.286557 C960.759952,156.020233 960.08008,155.198103 960.009749,154.225442 C959.927695,153.252781 960.365041,152.05059 961.26763,151.656894 L1009.95588,129.600472 C1012.23357,128.997595 1012.33201,128.623638 1013.26854,129.600472 C1014.20506,130.577307 1014.11818,132.166877 1013.69619,133.046904 L990.252332,181.67996 Z" id="Imported-Layers-5" sketch:type="MSShapeGroup" transform="translate(987.000000, 156.000000) rotate(-315.000000) translate(-987.000000, -156.000000) "></path>
        </g>
    </g>
</svg>