<svg width="53px" height="54px" viewBox="0 0 53 54" version="1.1" xmlns="http://www.w3.org/2000/svg" xmlns:xlink="http://www.w3.org/1999/xlink" xmlns:sketch="http://www.bohemiancoding.com/sketch/ns">
    <!-- Generator: Sketch 3.3.2 (12043) - http://www.bohemiancoding.com/sketch -->
    <title>settings_icon</title>
    <desc>Created with Sketch.</desc>
    <defs></defs>
    <g id="Page-1" stroke="none" stroke-width="1" fill="none" fill-rule="evenodd" sketch:type="MSPage">
        <g id="Menu" sketch:type="MSArtboardGroup" transform="translate(-812.000000, -108.000000)" fill="#FFFFFF">
            <g id="Ava" sketch:type="MSLayerGroup" transform="translate(49.000000, 108.000000)">
                <path d="M815.429622,24.5085 L815.400432,24.51 C815.295351,23.4525 814.478054,22.611 813.450595,22.506 L812.249459,22.506 L812.249459,22.4925 C810.960757,22.4925 809.84427,21.729 809.308649,20.616 C809.180216,20.343 809.082432,20.0505 809.028432,19.7415 C808.786162,19.05 808.511784,18.375 808.205297,17.7165 C808.205297,17.715 808.205297,17.715 808.203838,17.712 C808.050595,17.4795 807.925081,17.226 807.831676,16.956 L807.831676,16.9515 C807.709081,16.599 807.644865,16.2195 807.644865,15.8265 C807.644865,14.8965 808.00973,14.0535 808.605189,13.4445 L808.600811,13.4445 L809.269243,12.759 C809.278,12.753 809.286757,12.7455 809.295514,12.7365 C809.302811,12.7275 809.311568,12.7185 809.317405,12.708 C810.096757,11.883 810.136162,10.602 809.442919,9.729 L809.456054,9.72 C808.943784,9.0885 808.408162,8.4855 807.84627,7.9095 C807.269784,7.314 806.668486,6.753 806.042378,6.2175 L806.035081,6.2235 C805.265946,5.577 804.164054,5.5545 803.368649,6.153 L802.888486,6.6465 L802.438973,7.107 L802.418541,7.086 C801.462595,8.0715 800.061514,8.3205 798.877892,7.8315 C798.717351,7.767 798.562649,7.6875 798.413784,7.593 C797.659243,7.218 796.881351,6.8865 796.080108,6.606 C795.937081,6.57 795.799892,6.522 795.662703,6.465 C795.662703,6.465 795.659784,6.465 795.658324,6.459 C795.26573,6.3 794.896486,6.051 794.576865,5.724 C794.042703,5.172 793.731838,4.4805 793.642811,3.762 C793.607784,3.4815 793.607784,3.1995 793.642811,2.919 L793.642811,2.34 C793.642811,1.2345 792.864919,0.315 791.841838,0.1275 C791.714865,0.114 791.587892,0.105 791.458,0.0945 L791.456541,0.0945 C790.734108,0.0315 790.005838,0 789.27027,0 C788.534703,0 787.806432,0.0315 787.084,0.0945 L787.082541,0.0945 C786.952649,0.105 786.825676,0.114 786.697243,0.1275 C785.674162,0.315 784.89773,1.2345 784.89773,2.34 L784.89773,3.342 C784.89773,4.791 784.013297,6.0255 782.765459,6.501 C782.686649,6.5325 782.604919,6.5595 782.523189,6.5835 C781.646054,6.8895 780.799568,7.251 779.98227,7.6665 C779.977892,7.6695 779.977892,7.671 779.973514,7.671 C779.909297,7.707 779.845081,7.74 779.776486,7.7715 C779.360541,7.968 778.899351,8.0775 778.411892,8.0775 C777.507027,8.0775 776.686811,7.698 776.09573,7.0905 L776.088432,7.095 L775.396649,6.3855 C774.63627,5.6055 773.459946,5.5185 772.607622,6.126 C772.509838,6.2085 772.412054,6.291 772.318649,6.372 C772.31427,6.3765 772.309892,6.3825 772.305514,6.3855 C771.746541,6.8715 771.210919,7.3785 770.69573,7.9095 C770.179081,8.436 769.685784,8.988 769.215838,9.5595 C769.215838,9.5595 769.214378,9.5595 769.214378,9.564 C769.12973,9.6645 769.045081,9.768 768.964811,9.87 C768.369351,10.7475 768.454,11.9595 769.214378,12.741 L769.903243,13.449 C770.895676,14.472 771.117514,15.984 770.570216,17.226 C770.535189,17.3025 770.498703,17.3805 770.457838,17.454 C770.055027,18.291 769.703297,19.1625 769.409946,20.055 C769.383676,20.151 769.351568,20.2425 769.316541,20.334 C769.316541,20.334 769.316541,20.334 769.316541,20.3385 C769.156,20.7645 768.909351,21.1665 768.573676,21.51 C767.932973,22.167 767.096703,22.497 766.256054,22.497 L766.256054,22.506 L765.278216,22.506 C764.201135,22.506 763.306486,23.304 763.124054,24.3555 C763.110919,24.4845 763.100703,24.618 763.089027,24.75 C763.030649,25.4775 763,26.259 763,27 L763,27.018 L763,27.036 C763,27.7815 763.030649,28.5165 763.089027,29.244 L763.089027,29.2485 C763.100703,29.379 763.110919,29.5095 763.124054,29.6415 C763.306486,30.693 764.198216,31.494 765.272378,31.494 L765.278216,31.494 L766.256054,31.494 C767.652757,31.494 768.842216,32.391 769.316541,33.6555 L769.316541,33.66 C769.347189,33.7455 769.376378,33.8295 769.396811,33.915 C769.401189,33.9195 769.401189,33.924 769.405568,33.93 C769.698919,34.827 770.052108,35.6985 770.454919,36.54 C770.459297,36.5445 770.460757,36.5505 770.463676,36.5535 C770.498703,36.618 770.530811,36.687 770.561459,36.756 C770.752649,37.182 770.859189,37.6605 770.859189,38.1585 C770.859189,39.0885 770.492865,39.933 769.898865,40.5435 L769.903243,40.548 L769.23627,41.2335 C769.227514,41.2395 769.218757,41.2485 769.21,41.259 C769.201243,41.268 769.192486,41.277 769.185189,41.286 C768.456919,42.0585 768.37373,43.2375 768.94,44.1015 C769.036324,44.2215 769.131189,44.34 769.227514,44.454 C769.694541,45.021 770.183459,45.5655 770.69573,46.0905 C771.206541,46.617 771.740703,47.124 772.292378,47.604 C772.403297,47.7 772.514216,47.796 772.625135,47.892 C773.384054,48.417 774.391081,48.399 775.133946,47.841 L775.614108,47.3475 L776.063622,46.8855 L776.084054,46.9035 C777.077946,45.885 778.554919,45.657 779.764811,46.2225 C779.827568,46.251 779.888865,46.2825 779.947243,46.3155 C779.951622,46.3185 779.957459,46.3185 779.963297,46.3245 C780.784973,46.7445 781.641676,47.1105 782.523189,47.4165 C782.597622,47.439 782.673514,47.466 782.746486,47.4945 C783.175568,47.658 783.581297,47.9145 783.928649,48.2715 C784.569351,48.93 784.888973,49.7895 784.888973,50.6535 L784.89773,50.6535 L784.89773,51.636 C784.89773,52.797 785.755892,53.757 786.859243,53.871 L786.859243,53.8845 C787.653189,53.9625 788.455892,54 789.27027,54 C790.084649,54 790.884432,53.9625 791.681297,53.8845 L791.678378,53.871 C792.78027,53.757 793.642811,52.797 793.642811,51.636 L793.642811,50.6355 C793.642811,49.281 794.416324,48.1155 795.532811,47.5815 C795.760486,47.4705 795.999838,47.3895 796.249405,47.334 C796.970378,47.073 797.668,46.776 798.348108,46.4385 C798.545135,46.305 798.758216,46.1955 798.980054,46.113 C799.336162,45.9765 799.722919,45.8985 800.128649,45.8985 C800.959081,45.8985 801.720919,46.2195 802.300324,46.749 C802.401027,46.836 802.494432,46.932 802.583459,47.037 L803.140973,47.613 L803.143892,47.6085 C803.913027,48.399 805.118541,48.477 805.972324,47.841 C805.976703,47.841 805.979622,47.8365 805.981081,47.832 C806.052595,47.7735 806.121189,47.7135 806.191243,47.6535 C806.764811,47.1555 807.316486,46.635 807.84627,46.0905 C808.374595,45.546 808.881027,44.9805 809.367027,44.3895 C809.428324,44.3115 809.491081,44.235 809.553838,44.157 C810.153676,43.311 810.101135,42.132 809.404973,41.3385 L809.402054,41.3355 L809.247351,41.1765 L808.637297,40.548 L808.637297,40.545 C807.658,39.54 807.427405,38.058 807.942595,36.828 C807.992216,36.714 808.046216,36.6 808.107514,36.4905 C808.49427,35.6805 808.835784,34.8405 809.121838,33.9765 C809.152486,33.8625 809.188973,33.747 809.232757,33.6375 C809.391838,33.2175 809.638486,32.8245 809.966865,32.484 C810.606108,31.827 811.443838,31.4985 812.284486,31.4985 L812.284486,31.494 L813.227297,31.494 L813.227297,31.479 C814.394865,31.479 815.35227,30.5355 815.409189,29.349 L815.442757,29.3535 C815.506973,28.5765 815.540541,27.7905 815.540541,27 C815.540541,26.1585 815.502595,25.329 815.429622,24.5085 L815.429622,24.5085 Z M789.27027,39 C782.822378,39 777.594595,33.627 777.594595,27 C777.594595,20.3715 782.822378,14.9985 789.27027,14.9985 C795.718162,14.9985 800.945946,20.3715 800.945946,27 C800.945946,33.627 795.718162,39 789.27027,39 L789.27027,39 Z" id="settings_icon" sketch:type="MSShapeGroup"></path>
            </g>
        </g>
    </g>
</svg>