<svg width="54px" height="50px" viewBox="0 0 54 50" version="1.1" xmlns="http://www.w3.org/2000/svg" xmlns:xlink="http://www.w3.org/1999/xlink" xmlns:sketch="http://www.bohemiancoding.com/sketch/ns">
    <!-- Generator: Sketch 3.3.2 (12043) - http://www.bohemiancoding.com/sketch -->
    <title>Imported Layers</title>
    <desc>Created with Sketch.</desc>
    <defs></defs>
    <g id="Page-1" stroke="none" stroke-width="1" fill="none" fill-rule="evenodd" sketch:type="MSPage">
        <g id="Help\-Copy-9" sketch:type="MSArtboardGroup" transform="translate(-454.000000, -505.000000)" fill="#FFFFFF">
            <g id="Imported-Layers" sketch:type="MSLayerGroup" transform="translate(454.000000, 505.000000)">
                <path d="M44.977125,43.1536765 C44.5785536,43.1536765 44.1783214,43.0113971 43.8594643,42.721875 C43.1802321,42.1080882 43.1320714,41.0608456 43.7498571,40.3858456 C47.6641607,36.0992647 49.8214286,30.5702206 49.8214286,24.8178309 C49.8214286,19.0637868 47.6641607,13.5347426 43.7498571,9.24981618 C43.1320714,8.57316176 43.1802321,7.52757353 43.8594643,6.91378676 C44.5370357,6.29834559 45.5882679,6.34797794 46.2043929,7.02297794 C50.6800179,11.9183824 53.1428571,18.2382353 53.1428571,24.8178309 C53.1428571,31.3957721 50.6800179,37.7172794 46.2043929,42.6126838 C45.8772321,42.9716912 45.4271786,43.1536765 44.977125,43.1536765" id="Fill-1" sketch:type="MSShapeGroup"></path>
                <path d="M40.280625,38.4733456 C39.8886964,38.4733456 39.4984286,38.3376838 39.1845536,38.0613971 C38.4953571,37.4558824 38.4289286,36.4119485 39.0334286,35.7270221 C41.7055179,32.6994485 43.1785714,28.8248162 43.1785714,24.8178309 C43.1785714,20.8108456 41.7055179,16.9362132 39.0334286,13.9086397 C38.4289286,13.2237132 38.4953571,12.178125 39.1845536,11.5742647 C39.8704286,10.9737132 40.9216607,11.0382353 41.5278214,11.7248162 C44.733,15.35625 46.5,20.0068015 46.5,24.8178309 C46.5,29.6288603 44.733,34.2794118 41.5278214,37.9108456 C41.2006607,38.2830882 40.7406429,38.4733456 40.280625,38.4733456" id="Fill-2" sketch:type="MSShapeGroup"></path>
                <path d="M35.5774821,33.7913603 C35.2088036,33.7913603 34.8384643,33.6672794 34.5295714,33.4174632 C33.817125,32.8400735 33.7125,31.7994485 34.2920893,31.0913603 C35.7601607,29.2996324 36.5357143,27.1290441 36.5357143,24.8178309 C36.5357143,22.5049632 35.7601607,20.3360294 34.2920893,18.5443015 C33.7125,17.8362132 33.817125,16.7939338 34.5295714,16.2181985 C35.2403571,15.6375 36.2866071,15.7417279 36.8645357,16.453125 C38.7942857,18.8073529 39.8571429,21.7786765 39.8571429,24.8178309 C39.8571429,27.8569853 38.7942857,30.8283088 36.8645357,33.1808824 C36.537375,33.5829044 36.0590893,33.7913603 35.5774821,33.7913603" id="Fill-3" sketch:type="MSShapeGroup"></path>
                <path d="M26.5714286,49.6340074 C26.1396429,49.6340074 25.7145,49.4652574 25.3973036,49.1492647 L10.9374643,34.7443015 L4.98214286,34.7443015 C2.23532143,34.7443015 0,32.5174632 0,29.7810662 L0,19.8545956 C0,17.1181985 2.23532143,14.8913603 4.98214286,14.8913603 L10.9374643,14.8913603 L25.3973036,0.486397059 C25.8722679,0.0115808824 26.586375,-0.130698529 27.2074821,0.127389706 C27.8285893,0.382169118 28.2321429,0.987683824 28.2321429,1.65606618 L28.2321429,47.9795956 C28.2321429,48.6479779 27.8285893,49.2518382 27.2074821,49.5082721 C27.0015536,49.5926471 26.7856607,49.6340074 26.5714286,49.6340074 L26.5714286,49.6340074 Z M4.98214286,18.2001838 C4.06542857,18.2001838 3.32142857,18.9413603 3.32142857,19.8545956 L3.32142857,29.7810662 C3.32142857,30.6943015 4.06542857,31.4354779 4.98214286,31.4354779 L11.625,31.4354779 C12.06675,31.4354779 12.4869107,31.6091912 12.799125,31.9202206 L24.9107143,43.9858456 L24.9107143,5.64981618 L12.799125,17.7154412 C12.4869107,18.0248162 12.06675,18.2001838 11.625,18.2001838 L4.98214286,18.2001838 L4.98214286,18.2001838 Z" id="Fill-4" sketch:type="MSShapeGroup"></path>
            </g>
        </g>
    </g>
</svg>