<svg width="120px" height="120px" viewBox="0 0 120 120" version="1.1" xmlns="http://www.w3.org/2000/svg" xmlns:xlink="http://www.w3.org/1999/xlink" xmlns:sketch="http://www.bohemiancoding.com/sketch/ns">
    <!-- Generator: Sketch 3.3.2 (12043) - http://www.bohemiancoding.com/sketch -->
    <title>Rectangle 210 Copy 3 + Imported Layers</title>
    <desc>Created with Sketch.</desc>
    <defs></defs>
    <g id="Page-1" stroke="none" stroke-width="1" fill="none" fill-rule="evenodd" sketch:type="MSPage">
        <g id="Izbrannie-Copy-16" sketch:type="MSArtboardGroup" transform="translate(-48.000000, -959.000000)">
            <g id="Rectangle-210-Copy-3-+-Imported-Layers" sketch:type="MSLayerGroup" transform="translate(48.000000, 959.000000)">
                <rect id="Rectangle-210-Copy-3" fill="#E02F2F" sketch:type="MSShapeGroup" x="0" y="0" width="120" height="120" rx="10"></rect>
                <g id="Imported-Layers" transform="translate(27.000000, 29.000000)" fill="#FFFFFF" sketch:type="MSShapeGroup">
                    <path d="M67.5541176,25.1404151 L57.2435294,25.1404151 L57.2435294,14.8272568 C57.2435294,14.0403806 56.6052941,13.400443 55.8201961,13.400443 L52.8843137,13.400443 C52.0937255,13.400443 51.4554902,14.0403806 51.4554902,14.8272568 L51.4554902,25.1404151 L41.144902,25.1404151 C40.3598039,25.1404151 39.7188235,25.781726 39.7188235,26.5699754 L39.7188235,29.5073716 C39.7188235,30.295621 40.3598039,30.9341854 41.144902,30.9341854 L51.4554902,30.9341854 L51.4554902,41.2528368 C51.4554902,42.0410861 52.0937255,42.6796505 52.8843137,42.6796505 L55.8201961,42.6796505 C56.6052941,42.6796505 57.2435294,42.0410861 57.2435294,41.2528368 L57.2435294,30.9328121 L67.5541176,30.9328121 C68.3392157,30.9328121 68.9801961,30.2942477 68.9801961,29.5059984 L68.9801961,26.5686021 C68.9801961,25.7803527 68.3392157,25.1404151 67.5541176,25.1404151" id="Fill-1"></path>
                    <path d="M32.9054902,34.1846842 C30.7368627,32.6480098 28.7658824,30.3944955 28.7315686,29.7023741 C28.7315686,28.4417244 28.8441176,27.8388646 31.6701961,25.6361608 C35.3239216,22.7742937 37.3360784,19.0115701 37.3360784,15.0359918 C37.3360784,11.4311928 36.2352941,8.228758 34.3617647,5.97936341 L35.8152941,5.97936341 C36.1158824,5.97936341 36.4109804,5.88598195 36.6511765,5.71020509 L40.7070588,2.77006235 C41.2107843,2.40889582 41.4221569,1.76483839 41.23,1.17571124 C41.0364706,0.587957342 40.4929412,0.186966366 39.8739216,0.186966366 L21.7343137,0.186966366 C19.7496078,0.186966366 17.7333333,0.537146842 15.7541176,1.2182822 C9.14392157,3.49926169 4.52117647,9.13510747 4.52117647,14.9206382 C4.52117647,23.1176079 10.8678431,29.3302215 19.3515686,29.525224 C19.1854902,30.1747744 19.1017647,30.8147121 19.1017647,31.4422904 C19.1017647,32.7056866 19.4215686,33.9017933 20.0803922,35.0580755 L19.8470588,35.0580755 C11.76,35.0580755 4.46078431,39.0281608 1.68960784,44.9359114 C0.967647059,46.4725857 0.599803922,48.0257391 0.599803922,49.5596669 C0.599803922,51.0510238 0.982745098,52.4860771 1.73352941,53.8346153 C3.47529412,56.9519081 7.2154902,59.3702133 12.2705882,60.6473421 C14.8798039,61.3065053 17.6839216,61.6429532 20.595098,61.6429532 C23.2111765,61.6429532 25.705098,61.3051321 28.0109804,60.6377293 C35.2003922,58.5490057 39.8492157,53.2537276 39.8492157,47.1413618 C39.8478431,41.2761821 37.9633333,37.7647646 32.9054902,34.1846842 L32.9054902,34.1846842 Z M9.99627451,47.6110156 C9.99627451,43.3443068 15.4137255,39.6021821 21.5888235,39.6021821 L21.754902,39.6021821 C23.0986275,39.6186612 24.4094118,39.8164102 25.6447059,40.195429 C26.0688235,40.4879327 26.4778431,40.7667039 26.8703922,41.0344889 C29.7307843,42.9845135 31.6207843,44.2712551 32.1464706,46.3366333 C32.27,46.8570976 32.3317647,47.3775619 32.3317647,47.8815472 C32.3317647,53.1946776 28.3719608,55.8876341 20.5580392,55.8876341 C14.6354902,55.8876341 9.99627451,52.2539967 9.99627451,47.6110156 L9.99627451,47.6110156 Z M15.6154902,7.29631665 C16.5803922,6.19359147 17.8445098,5.6113306 19.2637255,5.6113306 L19.4243137,5.61407711 C23.4335294,5.73217719 27.2698039,10.202128 27.9752941,15.5784282 C28.3719608,18.5886071 27.7021569,21.4188893 26.1896078,23.1436998 C25.2219608,24.2491715 23.9756863,24.8314323 22.4988235,24.8314323 C22.4988235,24.8314323 22.4988235,24.8314323 22.4960784,24.8314323 L22.4315686,24.8314323 C18.5047059,24.7105857 14.5860784,20.0703511 13.8847059,14.7009171 C13.4907843,11.6989779 14.1221569,9.0005283 15.6154902,7.29631665 L15.6154902,7.29631665 Z" id="Fill-2"></path>
                </g>
            </g>
        </g>
    </g>
</svg>