<svg width="120px" height="120px" viewBox="0 0 120 120" version="1.1" xmlns="http://www.w3.org/2000/svg" xmlns:xlink="http://www.w3.org/1999/xlink" xmlns:sketch="http://www.bohemiancoding.com/sketch/ns">
    <!-- Generator: Sketch 3.3.2 (12043) - http://www.bohemiancoding.com/sketch -->
    <title>Rectangle 210 Copy 2 + Imported Layers</title>
    <desc>Created with Sketch.</desc>
    <defs></defs>
    <g id="Page-1" stroke="none" stroke-width="1" fill="none" fill-rule="evenodd" sketch:type="MSPage">
        <g id="Izbrannie-Copy-16" sketch:type="MSArtboardGroup" transform="translate(-48.000000, -743.000000)">
            <g id="Rectangle-210-Copy-2-+-Imported-Layers" sketch:type="MSLayerGroup" transform="translate(48.000000, 743.000000)">
                <rect id="Rectangle-210-Copy-2" fill="#029EEF" sketch:type="MSShapeGroup" x="0" y="0" width="120" height="120" rx="10"></rect>
                <path d="M58.5169804,41.0056237 C63.5069804,41.0056237 68.1989804,43.2106237 71.6439804,46.6646237 L71.6439804,46.6776237 C71.6439804,45.0196237 72.7589804,43.7696237 74.3099804,43.7696237 L74.7009804,43.7676237 C77.1239804,43.7676237 77.6219804,46.0606237 77.6219804,46.7866237 L77.6339804,72.5686237 C77.4629804,74.2546237 79.3759804,75.1266237 80.4359804,74.0446237 C84.5759804,69.7906237 89.5279804,52.1736237 77.8629804,41.9666237 C66.9899804,32.4516237 52.4029804,34.0196237 44.6449804,39.3676237 C36.3979804,45.0546237 31.1199804,57.6436237 36.2469804,69.4666237 C41.8349804,82.3656237 57.8249804,86.2106237 67.3289804,82.3756237 C72.1419804,80.4326237 74.3649804,86.9386237 69.3659804,89.0636237 C61.8139804,92.2826237 40.7939804,91.9586237 30.9749804,74.9486237 C24.3409804,63.4616237 24.6939804,43.2526237 42.2889804,32.7836237 C55.7499804,24.7736237 73.4959804,26.9926237 84.1969804,38.1676237 C95.3829804,49.8506237 94.7299804,71.7276237 83.8199804,80.2366237 C78.8759804,84.0986237 71.5339804,80.3376237 71.5809804,74.7076237 L71.5299804,72.8666237 C68.0879804,76.2816237 63.5069804,78.2746237 58.5169804,78.2746237 C48.6569804,78.2746237 39.9809804,69.5976237 39.9809804,59.7406237 C39.9809804,49.7826237 48.6569804,41.0056237 58.5169804,41.0056237 L58.5169804,41.0056237 Z M70.9259804,59.0276237 C70.5549804,51.8066237 65.1959804,47.4646237 58.7239804,47.4646237 L58.4799804,47.4646237 C51.0119804,47.4646237 46.8699804,53.3376237 46.8699804,60.0086237 C46.8699804,67.4796237 51.8809804,72.1986237 58.4509804,72.1986237 C65.7769804,72.1986237 70.5939804,66.8326237 70.9429804,60.4846237 L70.9259804,59.0276237 L70.9259804,59.0276237 Z" id="Imported-Layers" fill="#FFFFFF" sketch:type="MSShapeGroup"></path>
            </g>
        </g>
    </g>
</svg>