<svg width="49px" height="30px" viewBox="0 0 49 30" version="1.1" xmlns="http://www.w3.org/2000/svg" xmlns:xlink="http://www.w3.org/1999/xlink" xmlns:sketch="http://www.bohemiancoding.com/sketch/ns">
    <!-- Generator: Sketch 3.3.2 (12043) - http://www.bohemiancoding.com/sketch -->
    <title>master_logo</title>
    <desc>Created with Sketch.</desc>
    <defs></defs>
    <g id="Page-1" stroke="none" stroke-width="1" fill="none" fill-rule="evenodd" sketch:type="MSPage">
        <g id="Product_list_full" sketch:type="MSArtboardGroup" transform="translate(-240.000000, -361.000000)">
            <g id="card_master_open-3" sketch:type="MSLayerGroup" transform="translate(-320.000000, 333.000000)">
                <g id="master_logo" transform="translate(560.000000, 28.000000)" sketch:type="MSShapeGroup">
                    <path d="M30.014,15.001 C30.014,23.285 23.295,30 15.007,30 C6.719,30 0,23.285 0,15.001 C0,6.715 6.719,0 15.007,0 C23.295,0 30.014,6.715 30.014,15.001" id="Fill-1" fill="#E6411B"></path>
                    <path d="M34.004,0 C42.288,0 49.004,6.715 49.004,15 C49.004,23.284 42.288,30 34.004,30 C25.72,30 19.004,23.284 19.004,15 C19.004,6.715 25.72,0 34.004,0" id="Fill-2" fill="#F79F29"></path>
                    <path d="M25.004,3 C24.226,3.586 23.521,4.259 22.87,4.982 L27.138,4.982 C26.487,4.259 25.782,3.586 25.004,3" id="Fill-3" fill="#E6411B"></path>
                    <path d="M28.378,7 L21.058,7 C20.653,7.635 20.306,8.306 20,9.002 L29.436,9.002 C29.13,8.306 28.782,7.635 28.378,7" id="Fill-4" fill="#E6411B"></path>
                    <path d="M30.294,10.998 L19.419,10.998 C19.238,11.65 19.091,12.315 19,13 L30.713,13 C30.622,12.315 30.474,11.65 30.294,10.998" id="Fill-5" fill="#E6411B"></path>
                    <path d="M19,15 C19,15.68 19.056,16.346 19.144,17.002 L30.856,17.002 C30.944,16.346 31,15.68 31,15 L19,15" id="Fill-6" fill="#E6411B"></path>
                    <path d="M19.845,21.002 L29.28,21.002 C29.565,20.356 29.808,19.69 30,19 L19.125,19 C19.317,19.69 19.56,20.356 19.845,21.002" id="Fill-7" fill="#E6411B"></path>
                    <path d="M22.526,25.002 L26.794,25.002 C27.357,24.378 27.868,23.711 28.32,23 L21,23 C21.452,23.711 21.964,24.378 22.526,25.002" id="Fill-8" fill="#E6411B"></path>
                </g>
            </g>
        </g>
    </g>
</svg>