<?xml version="1.0" encoding="utf-8"?>
<!-- Generator: Adobe Illustrator 16.0.0, SVG Export Plug-In . SVG Version: 6.00 Build 0)  -->
<!DOCTYPE svg PUBLIC "-//W3C//DTD SVG 1.0//EN" "http://www.w3.org/TR/2001/REC-SVG-20010904/DTD/svg10.dtd">
<svg version="1.0" id="Layer_1" xmlns="http://www.w3.org/2000/svg" xmlns:xlink="http://www.w3.org/1999/xlink" x="0px" y="0px"
	 width="32px" height="32px" viewBox="0 0 32 32" enable-background="new 0 0 32 32" xml:space="preserve">
<path d="M16,0C7.164,0,0,7.164,0,16s7.164,16,16,16s16-7.164,16-16S24.836,0,16,0z M19,24h-6c-0.551,0-1-0.449-1-1
	c0-0.555,0.449-1,1-1h6c0.555,0,1,0.445,1,1C20,23.551,19.555,24,19,24z M26,14c0,1.105-0.895,2-2,2h-4c-1.102,0-2-0.895-2-2v-2h-4
	v2c0,1.105-0.895,2-2,2H8c-1.102,0-2-0.895-2-2v-4c0-1.105,0.898-2,2-2h4c1.105,0,2,0.895,2,2h4c0-1.105,0.898-2,2-2h4
	c1.105,0,2,0.895,2,2V14z M24,12c0,1.105-0.895,2-2,2s-2-0.895-2-2s0.895-2,2-2S24,10.895,24,12z M12,12c0,1.105-0.895,2-2,2
	s-2-0.895-2-2s0.895-2,2-2S12,10.895,12,12z" fill="#24A7B3"/>
</svg>
