<?xml version="1.0" encoding="utf-8"?>
<!-- Generator: Adobe Illustrator 16.0.0, SVG Export Plug-In . SVG Version: 6.00 Build 0)  -->
<!DOCTYPE svg PUBLIC "-//W3C//DTD SVG 1.0//EN" "http://www.w3.org/TR/2001/REC-SVG-20010904/DTD/svg10.dtd">
<svg version="1.0" id="Layer_1" xmlns="http://www.w3.org/2000/svg" xmlns:xlink="http://www.w3.org/1999/xlink" x="0px" y="0px"
	 width="32px" height="32px" viewBox="0 0 32 32" enable-background="new 0 0 32 32" xml:space="preserve">
<path d="M28,10H0V6c0-1.105,0.895-2,2-2h24c1.105,0,2,0.895,2,2V10z M26,26H2c-1.105,0-2-0.895-2-2V14h28v10
	C28,25.105,27.105,26,26,26z M16,16H4v2h12V16z M30,8v20H4c0,1.105,0.895,2,2,2h24c1.105,0,2-0.895,2-2V10C32,8.895,31.105,8,30,8z"
	 fill="#24A7B3"/>
</svg>
